<svg xmlns="http://www.w3.org/2000/svg" viewBox="0 0 600 240">
	<defs>
		<style>
			.cls-1{fill:#f8a900;}
			.cls-2{fill:#fff;}
			.cls-3{fill:#91ecff;}
			.cls-4{fill:#4592a2;}
			.cls-5{fill:#c6f5ff;}
		</style>
	</defs>
	<title>exact-choice</title>
	<path d="M347.26,81a4.07,4.07,0,0,1,3.54,2.14l20.62,34.8a4.54,4.54,0,0,1,0,4.81l-75.86,90.71a4,4,0,0,1-6.28,0l-75.86-90.72a4.54,4.54,0,0,1,0-4.81L234,83.13A4.07,4.07,0,0,1,237.58,81Z"/>
	<path class="cls-1" d="M358.91,124.35H334.55l-26.7,61,51.06-61Zm-81.91,61-26.7-61H225.93l51.06,61Zm-22.6-72.24L281,90H244.26l10.14,23.16ZM303.82,90l26.62,23.16L340.58,90Z"/>
	<path class="cls-2" d="M347.52,94.7l-9.19,21H360l-12.44-21ZM292.42,200l33.12-75.69H259.3Zm0-108.79L264.31,115.7h56.22L292.42,91.24ZM224.88,115.7h21.63l-9.19-21Z"/>
	<path class="cls-3" d="M434.88,74.31h.72l3.65,23.81a6,6,0,0,0,4.68,4.68l23.81,3.65v.72l-23.81,3.64a6,6,0,0,0-4.68,4.68l-3.65,23.82h-.72l-3.65-23.81a6,6,0,0,0-4.68-4.68l-23.81-3.65v-.72l23.81-3.65a6,6,0,0,0,4.68-4.68Z"/>
	<path class="cls-4" d="M164.94,114.15h.61l3.09,20.15a5,5,0,0,0,4,4l20.15,3.08V142l-20.2,3a5,5,0,0,0-4,4l-3.09,20.15h-.61l-3-20.15a5,5,0,0,0-4-4l-20.15-3.09v-.61l20.15-3.08a5,5,0,0,0,4-4Z"/>
	<path class="cls-1" d="M216,25h.53l2.69,17.59A4.4,4.4,0,0,0,222.67,46l17.58,2.69v.53L222.67,52a4.4,4.4,0,0,0-3.46,3.46L216.52,73H216l-2.69-17.59A4.4,4.4,0,0,0,209.84,52l-17.59-2.69v-.53L209.84,46a4.4,4.4,0,0,0,3.46-3.46Z"/>
	<path class="cls-3" d="M365,35.55h.44l2.26,14.66a3.67,3.67,0,0,0,2.88,2.88l14.66,2.24v.44L370.58,58a3.67,3.67,0,0,0-2.88,2.88l-2.24,14.65H365l-2.24-14.65A3.66,3.66,0,0,0,359.89,58l-14.66-2.24v-.44l14.66-2.24a3.66,3.66,0,0,0,2.88-2.88Z"/>
	<path class="cls-3" d="M136.28,83.6a9,9,0,1,0-9-9h0A9,9,0,0,0,136.28,83.6Z"/>
	<path class="cls-5" d="M63,182.66a13,13,0,1,0-13-13h0A13,13,0,0,0,63,182.66Z"/>
	<path class="cls-4" d="M483,73a7,7,0,1,0-7-7A7,7,0,0,0,483,73Z"/>
	<path class="cls-3" d="M541,171.78a9,9,0,1,0-9-9A9,9,0,0,0,541,171.78Z"/>
	<path class="cls-3" d="M382.12,198.26a9,9,0,1,0-9-9A9,9,0,0,0,382.12,198.26Z"/>
</svg>