<svg xmlns="http://www.w3.org/2000/svg" viewBox="0 0 600 240">
    <defs>
        <style>
            .cls-1 {fill:#F8A900;}
            .cls-2 {fill:#C6F5FF; fill-rule:evenodd;}
            .cls-3 {fill:#91ECFF; fill-rule:evenodd;}
        </style>
    </defs>

    <title>premium</title>

    <g id="stars">
        <polygon class="cls-1" points="74.07 50 78.77 55.82 86.24 55.26 82.15 61.52 84.99 68.44 77.76 66.49 72.05 71.33 71.67 63.86 65.3 59.93 72.3 57.27 74.07 50"/>
        <polygon class="cls-1" points="9.4 108.53 14.27 110.45 18.62 107.53 18.29 112.75 22.41 115.97 17.34 117.28 15.54 122.19 12.73 117.78 7.5 117.58 10.84 113.55 9.4 108.53"/>
        <polygon class="cls-1" points="149.63 56.31 149.88 60.54 153.5 62.73 149.55 64.27 148.58 68.39 145.9 65.11 141.67 65.46 143.96 61.9 142.32 58 146.42 59.07 149.63 56.31"/>
        <polygon class="cls-1" points="121.98 142.2 125.01 146.47 130.25 146.4 127.12 150.59 128.81 155.54 123.84 153.87 119.65 157 119.71 151.77 115.43 148.75 120.43 147.2 121.98 142.2"/>
        <polygon class="cls-1" points="468.93 10 464.23 15.82 456.76 15.26 460.86 21.52 458.01 28.44 465.24 26.49 470.96 31.33 471.33 23.86 477.71 19.93 470.7 17.27 468.93 10"/>
        <polygon class="cls-1" points="533.6 68.53 528.73 70.45 524.38 67.53 524.71 72.75 520.59 75.97 525.66 77.28 527.46 82.19 530.27 77.77 535.5 77.58 532.17 73.55 533.6 68.53"/>
        <polygon class="cls-1" points="393.37 16.31 393.13 20.54 389.5 22.73 393.45 24.27 394.42 28.39 397.11 25.11 401.33 25.46 399.04 21.9 400.68 18 396.58 19.07 393.37 16.31"/>
        <polygon class="cls-1" points="431.02 192.2 427.99 196.47 422.76 196.4 425.88 200.59 424.2 205.54 429.16 203.87 433.35 207 433.29 201.77 437.57 198.75 432.57 197.2 431.02 192.2"/>
    </g>

    <g id="clouds">
        <path class="cls-2" d="M54.5,148.7a6.34,6.34,0,0,0,6.26,6.43A6.13,6.13,0,0,0,62,155a5.48,5.48,0,0,0,5.28,4.23,5.32,5.32,0,0,0,3.16-1,5.3,5.3,0,0,0,9.58-.47,6.45,6.45,0,0,0,2.82.64,6.72,6.72,0,0,0,6.63-6.81,6.83,6.83,0,0,0-3.51-6,6.67,6.67,0,0,0,1.39-4.1A6.5,6.5,0,0,0,81,134.87a6.24,6.24,0,0,0-3,.75A10.1,10.1,0,0,0,70.28,132,10.38,10.38,0,0,0,60,142.31,6.37,6.37,0,0,0,54.5,148.7Z"/>
        <path class="cls-2" d="M221,28.32a3.81,3.81,0,0,0,3.75,3.86,3.68,3.68,0,0,0,.77-.08,3.29,3.29,0,0,0,3.17,2.54,3.19,3.19,0,0,0,1.9-.62,3.18,3.18,0,0,0,5.75-.28,3.87,3.87,0,0,0,1.69.39A4,4,0,0,0,242,30a4.1,4.1,0,0,0-2.1-3.6,4,4,0,0,0,.84-2.46A3.9,3.9,0,0,0,236.89,20a3.74,3.74,0,0,0-1.78.45,6.06,6.06,0,0,0-4.64-2.17,6.23,6.23,0,0,0-6.14,6.19A3.82,3.82,0,0,0,221,28.32Z"/>
        <path class="cls-2" d="M179.36,141.33c-3.93-.67-2.31-6.27.48-5.95.2-6.08,15.25-4.56,13.69,5.5,4.48,2.69,1.09,10.69-6.05,6.87-6.89,1.83-10-3.31-8.11-6.42Z"/>
        <path class="cls-2" d="M382.54,177.45c3.93.68,2.31,6.27-.48,5.95-.2,6.08-15.25,4.56-13.69-5.5-4.48-2.69-1.09-10.69,6.05-6.87,6.89-1.83,10,3.32,8.11,6.42Z"/>
        <path class="cls-2" d="M218.16,73.31c2.14-.71,4.83,2.43,1.82,4.19-1.25,2.25-6.44,1.23-6.07-.88-3.7-.19-2.74-4.5-.74-4.1,1-2.94,5.43-1.77,5,.79Z"/>
        <path class="cls-2" d="M314.6,16.47c2.14.71,4.83-2.43,1.82-4.19-1.25-2.25-6.44-1.23-6.07.88-3.7.19-2.74,4.5-.74,4.1,1,2.94,5.43,1.77,5-.79Z"/>
        <path class="cls-2" d="M337.77,61.2c-4.64-1.54-10.5,5.28-3.95,9.1,2.72,4.88,14,2.67,13.18-1.91,8-.42,6-9.76,1.6-8.89-2.21-6.38-11.78-3.84-10.83,1.71Z"/>
        <path class="cls-2" d="M512.5,178.7a6.34,6.34,0,0,0,6.26,6.43A6.14,6.14,0,0,0,520,185a5.48,5.48,0,0,0,5.28,4.23,5.32,5.32,0,0,0,3.16-1,5.3,5.3,0,0,0,9.58-.47,6.45,6.45,0,0,0,2.82.65,6.72,6.72,0,0,0,6.63-6.81,6.83,6.83,0,0,0-3.51-6,6.67,6.67,0,0,0,1.4-4.1,6.5,6.5,0,0,0-6.41-6.58,6.24,6.24,0,0,0-3,.75,10.1,10.1,0,0,0-7.73-3.63A10.38,10.38,0,0,0,518,172.31,6.37,6.37,0,0,0,512.5,178.7Z"/>
        <path class="cls-2" d="M166.48,89.79a6.52,6.52,0,0,0,6.44,6.49A6.35,6.35,0,0,0,177.78,94a3.92,3.92,0,0,0,1.87.47,4.08,4.08,0,0,0,4-4.14,4.19,4.19,0,0,0-.88-2.58A4.29,4.29,0,0,0,185,84a4.22,4.22,0,0,0-4.16-4.28,4.05,4.05,0,0,0-1.77.41,3.33,3.33,0,0,0-6-.29,3.34,3.34,0,0,0-2-.65,3.44,3.44,0,0,0-3.32,2.66,3.86,3.86,0,0,0-.81-.09,4,4,0,0,0-.45,8.05Z"/>
        <path class="cls-2" d="M138.11,204.11a13.36,13.36,0,0,0,13.27,13.45,13.13,13.13,0,0,0,3.75-.55,17.22,17.22,0,0,0,24.18,2.41,6,6,0,0,0,10-.94,11.46,11.46,0,0,0,6,1.69,11.78,11.78,0,0,0,0-23.55,11.52,11.52,0,0,0-2.16.21,9.54,9.54,0,0,0-9.47-8.94A9.35,9.35,0,0,0,179,189.1a16.58,16.58,0,0,0-32.85,2.65A13.45,13.45,0,0,0,138.11,204.11Z"/>
        <path class="cls-2" d="M599.5,60a8.81,8.81,0,0,0-8.76-8.87,8.71,8.71,0,0,0-1.8.19,7.64,7.64,0,0,0-7.39-5.84,7.53,7.53,0,0,0-4.42,1.43,7.47,7.47,0,0,0-13.41.64,9.15,9.15,0,0,0-3.94-.89,9.41,9.41,0,0,0-4.37,17.67,9.1,9.1,0,0,0,7,14.73,8.85,8.85,0,0,0,4.16-1,14.23,14.23,0,0,0,10.83,5,14.42,14.42,0,0,0,14.33-14.23A8.83,8.83,0,0,0,599.5,60Z"/>
        <path class="cls-2" d="M44,60.82a7,7,0,0,0-6.7-9.08,7,7,0,0,0-2.27.37,10.53,10.53,0,0,0-19.12,0,7,7,0,0,0-9,8.71A10.49,10.49,0,1,0,18.26,78.11a10.53,10.53,0,0,0,14.49,0A10.5,10.5,0,1,0,44,60.82Z"/>
        <path class="cls-3" d="M491.21,86.25a29.41,29.41,0,0,0-58.27-4.69,16.58,16.58,0,0,0-8.2-2.16A16.93,16.93,0,0,0,408,95.26a20.43,20.43,0,0,0-3.83-.37,20.89,20.89,0,0,0,0,41.78,20.33,20.33,0,0,0,10.64-3,10.69,10.69,0,0,0,17.66,1.67,30.54,30.54,0,0,0,42.89-4.28,23.3,23.3,0,0,0,6.64,1,23.9,23.9,0,0,0,9.25-45.79Z"/>
    </g>

    <g id="rocket">
        <circle id="rocket_window" data-name="rocket window" cx="299.51" cy="136.71" r="16.75"/>
        <path id="rocket_body" data-name="rocket body" d="M350.5,163.6V197.4a3.75,3.75,0,0,1-1.89,3.25,3.84,3.84,0,0,1-3.79,0l-19.51-10.95h-51.6L254.2,200.67a3.84,3.84,0,0,1-3.79,0,3.75,3.75,0,0,1-1.89-3.25V163.6a19.89,19.89,0,0,1,6.3-14.47l14-13.05c0-4.4,0-7.85,0-9.57,0-16.93,17.65-33.14,23.05-37.71a11.94,11.94,0,0,1,15.5,0c6.15,5.23,14.5,14.39,19.52,24.41a3.74,3.74,0,0,1-1.72,5,3.83,3.83,0,0,1-5.1-1.7c-4.51-9-12.08-17.3-17.67-22.05a4.3,4.3,0,0,0-5.58,0c-9.85,8.32-20.38,21.1-20.39,32,0,7.12.07,43.77.1,55.7h46.32V137.84a3.76,3.76,0,0,1,2.3-3.45,3.84,3.84,0,0,1,4.12.72l15,14A19.9,19.9,0,0,1,350.5,163.6Zm-51,62.4a3.85,3.85,0,0,0,1.38-.25c.68-.26,16.64-6.56,16.64-23.14a17.66,17.66,0,0,0-.12-2,3.79,3.79,0,0,0-3.78-3.34H285.39a3.79,3.79,0,0,0-3.78,3.34,18.09,18.09,0,0,0-.12,2c0,16.21,15.9,22.83,16.57,23.11a3.83,3.83,0,0,0,1.44.28Z"/>
        <path id="right_wing" data-name="right wing" class="cls-1" d="M330.4,183.93l12.48,7V163.6a12.39,12.39,0,0,0-3.93-9l-8.56-8Z"/>
        <path id="left_wing" data-name="left wing" class="cls-1" d="M268.61,146.58l-8.56,8a12.39,12.39,0,0,0-3.93,9v27.35l12.49-7Z"/>
        <path id="fire" class="cls-1" d="M289.26,204.77c1.06,7.5,7.42,11.74,10.29,13.29,2.89-1.5,9.2-5.62,10.22-13.29Z"/>
        <circle id="window" class="cls-1" cx="299.51" cy="136.71" r="9"/>
    </g>
</svg>