<svg xmlns="http://www.w3.org/2000/svg" viewBox="0 0 600 240">
    <defs>
        <style>
            .cls-1 {fill:#4592A2;}
            .cls-2 {fill:#cbe8f3;}
            .cls-3, .cls-5 {fill:#F8A900;}
            .cls-4, .cls-5 {fill-rule:evenodd;}
        </style>
    </defs>
    <title>smart-search</title>

    <g id="circles_dark" data-name="circles dark">
        <circle class="cls-1" cx="73" cy="124.5" r="7.5"/>
        <circle class="cls-1" cx="157" cy="170.5" r="7.5"/>
        <circle class="cls-1" cx="353" cy="153.5" r="7.5"/>
        <circle class="cls-1" cx="447" cy="176.5" r="7.5"/>
        <circle class="cls-1" cx="484" cy="84.5" r="7.5"/>
    </g>

    <g id="circles_light" data-name="circles light">
        <circle class="cls-2" cx="84" cy="174.5" r="7.5"/>
        <circle class="cls-2" cx="144" cy="114.5" r="7.5"/>
        <circle class="cls-2" cx="184" cy="94.5" r="7.5"/>
        <circle class="cls-2" cx="204" cy="154.5" r="7.5"/>
        <circle class="cls-2" cx="250" cy="52.5" r="7.5"/>
        <circle class="cls-2" cx="254" cy="194.5" r="7.5"/>
        <circle class="cls-2" cx="315" cy="174.5" r="7.5"/>
        <circle class="cls-2" cx="345" cy="45.5" r="7.5"/>
        <circle class="cls-2" cx="375" cy="114.5" r="7.5"/>
        <circle class="cls-2" cx="403" cy="168.5" r="7.5"/>
        <circle class="cls-2" cx="463" cy="142.5" r="7.5"/>
        <circle class="cls-2" cx="526" cy="121.5" r="7.5"/>
        <circle class="cls-2" cx="580" cy="129.5" r="7.5"/>
    </g>

    <g id="circles_gold" data-name="circles gold">
        <circle class="cls-3" cx="36" cy="155.5" r="7.5"/>
        <circle class="cls-3" cx="302" cy="108.5" r="13.5"/>
        <circle class="cls-3" cx="418" cy="84.5" r="7.5"/>
        <circle class="cls-3" cx="520" cy="163.5" r="7.5"/>
    </g>

    <g id="loupe">
        <path id="blik" class="cls-4" d="M272.93,103.36a4,4,0,0,0,7.9,0,16.32,16.32,0,0,1,16.43-16.2,3.9,3.9,0,1,0,0-7.79h-.11a24.16,24.16,0,0,0-24.22,23.88Z"/>
        <path id="body" class="cls-4" d="M297.26,63.24c-22.48,0-40.7,18-40.7,40.13,0,20.78,16.14,38,36.75,39.94v6.85H285.6a3.93,3.93,0,0,0-4,3.9v31.6a15.61,15.61,0,0,0,31.22,0v-31.6a3.93,3.93,0,0,0-4-3.9h-7.71V139.59a3.92,3.92,0,0,0-4-3.9,32.34,32.34,0,1,1,32.8-32.33,32.23,32.23,0,0,1-16.26,27.93,3.86,3.86,0,0,0-1.58,5.4,4,4,0,0,0,5.39,1.43h0A40,40,0,0,0,338,103.36C338,81.2,319.74,63.24,297.26,63.24Z"/>
        <path id="gold" class="cls-5" d="M305,185.66V158H289.55v27.71a7.71,7.71,0,0,0,15.41,0Z"/>
    </g>
</svg>