<svg xmlns="http://www.w3.org/2000/svg" viewBox="0 0 940 635.78">
    <defs>
        <style>
            .cls-1 {fill: #e6e6e6;}
            .cls-2 {fill: #ffac00;}
            .cls-3 {fill: #E89800;}
            .cls-4 {fill: #34d7e8; fill: #E09000;}
        </style>
    </defs>

    <title>Ukraine</title>

    <g id="map">
        <path class="cls-2" d="M538.89,496.84c-2.84-1.09-4.85-2.09-4.85-4.1s-.08-2.09-3.26-2.17-4.51-2.09-5.94-3.85-1.34-1.42-3.85-1.42-3.43-2.09-5.68-3.68-1.09,1.67-2.76,2.51-2.59-.42-4.93-2.68,2.09-2.68,4.68-3.34,3,.92,5.6-.5,3.59-3.26,3.26-5.43-1.59-2.26-4.77-2.26-3.43.25-6-1.34-2.34-2.26-4.51-2.26-2.68,3.18-3.51,4.35-1,1.09-2.34-1a19.7,19.7,0,0,0-4.43-5c-1.84-1.5-3-4.35-2.34-5s2,1.42,2.93,2.42,4.93-.25,7.61-.25,3.26.5,4.1,1.25,5.18.59,8.86,1.17,4.85.25,7.19.59,6.94.84,8.78,1.76,4.77,2,6.6,1.5,2.76-2.84,3-5.1,3.85-2.51,5.18-3.43,5.27-3.76,6.94-4.93,1.84-1.67,3.43-1.84,3.34.5,5.43-.5,3.59-3.51,4.93-4.18a41.35,41.35,0,0,1,7.61-3.59,29.37,29.37,0,0,1,7.61-1.17c1.67-.08,4.43.08,5.85.08s4.18-.33,5.6-1.76,3.59-2.84,5.35-2.76,4.51.5,5.43-.17,3-.92,4.68-1.76-.5-1.76-1.59-2.93.84-2.51,2.34-2.76,3.85-.17,2.59-1.42-3.09-1-3.51-3.43,2.42-3.26,3.85-5.43,3.26-2.76,3.51-4.26.08-2.76.92-4.1,3.76-2.68,5.77-5.68,1.67-6.94,2.34-8.78,2.51-.84,3.76-.84a11.25,11.25,0,0,1,4.35.67c1.25.59,3.18.59,2.51-.42s-.67-2.59-1.59-3.76-1.84-.25-2.76.5-3.85.42-5.52.42-.42-2-.42-4.35,3.26-1,5.18-.84,6.1.17,8.19-.5,2.59-4.85,3.59-6.19,3.68-.75,5.1-.75,4.35-2.26,6.44-3.26,4.26-.08,7,.75,3.26,2.59,5.85,4.51,4.1,3.59,6.27,4.93,2.76-.33,4.51-1.76,2.42-3.18,4.85-3.51a36.08,36.08,0,0,1,5.52-.75c2.09,0,3.93.25,3.93-.84s1.25-2.59,1.84-5-1.42-3.26-2.93-5.18-1.76-5.1-4-6.77-1.34-3.18-2-5.85-2.59-7.61-2.93-10.62-.5-5.1.33-6.44a5.44,5.44,0,0,0,.33-5.1c-.84-1.76-4.1-2.51-4.43-4.1s2.76-.75,4-2.42,1.5-5.43,1.5-8.28-1.42-6.1-2.59-8.28a33.82,33.82,0,0,1-2.84-7.94c-.33-1.92,1.34-3.34,2.34-4.85s4.18-2.59,3.76-3.93-.25-6-.59-8.36-1.92,1.92-3.68,4-1.5,5-1.25,6.94-.67,3-3.18,3.09-7.19-1.67-8.94-1.67-3.93-.33-6-.25-2.93-1.42-4.1-2.34-3.76-1.09-6.52-3.18-2.68-4.51-5.85-5.6-4.43-2.68-7.27-3.93a18,18,0,0,1-6.44-4.6c-1.09-1.42-4.68-2-6.35-2.68s-1.25-2.51-.59-3.68.25-3.59-1.5-3.09-2.17,2.34-4.6,2.34-4.18-1.67-6.77-3.59-3.59-1.34-5.52-.92-5-2.68-7.11-3.85-5.18-1.42-6.85-3.09-2.84-2.59-4.68-3-7.44-.75-9.61-1.42-3.26-4.26-4.35-6.1-2.93-2.84-5.27-5.1-1.5-3.51-2.84-3.85-3.34-2.42-3.85-4.68-.92-1.92-2.68-2.93-1.34-2.26-2.09-3.51-2.93-1.34-5.18-2.59-.33-4.43-.5-6.35-2.34-1.09-3.68.42-1.42,5.68-1,7.44,3.26,3.43,5,4.77,1.34,3.18-.67,3.68-2.93.33-5.52-1.5-4.43-1.34-6.69-1.76-4.43-4.35-6.69-6.44a7.88,7.88,0,0,0-5.85-2.51c-1.84,0-4.68.08-7-1.34S516.9,222,515,220.71s-2.59,1.84-3.76,2.68a5.38,5.38,0,0,1-4.68.25c-1.42-.59-2.76-4.85-3.18-5.52s-4.35-1-5.94-.75-.08,1.5,1.5,1.5,2.59,2,3.43,3.18.84,2.68,3,3.51,3.34-.08,5,.84a50.58,50.58,0,0,1,5.71,4c2.29,1.73,5.46,4,6.85,5.91s3.51,2.84,5.13,4,3.51,1,5.74,2,2.62,2,5.13,4.07,2.84,1.34,5.52,2.51,4.12,3.85,6,5.63a45.89,45.89,0,0,0,7.3,5c1.28.72,2.68-.11,3.79.61s2,.84,3.73-.11,2.68-.5,5.07.5.84,2.34.67,4.24,1.34,2.29,3.79,2.68.67-4,1.34-5.46,2.34-.89,5.07-.89,5.91.11,7.91,1.17,1.89,2.45,3.34,3.73,4.07,2.23,5.85,4,2.51,1.5,6,2.9,2.06,2.51,4.46,3.51,4.24-.61,5.85,1.34.67,2.9,1.78,4.07,3.12-.95,4.24-.06,2.45,2.68,4.9,3,2.06.39,3.68,1.78a21,21,0,0,0,5.63,3.85c2.68,1.23,4.57,3.18,6.63,4.68s3.29,2.9,5.41,4.35,4,.5,6.46,1.06,4.29,2.12,6.13,3.12a12.38,12.38,0,0,0,6.46.84c1.39-.22,6.46.95,8.47,1.39a6.32,6.32,0,0,1,4.07,2.68c1,1.34,1.56,5,2.45,7.19s2.06,4.07,2.06,6.41.06,6.41-.95,7.52-3,.72-4,1.11-.89,3.07-.11,4,3,2.84,4.35,4.51-.33,3.12-.56,4.29-.17,7.13-.11,9,2.34,4.85,2.68,6.74-.78,5.35-1.34,8.47-4.74,7.19-6.69,8.69-7.58.95-10.2.95-5.46-2.4-7.52-3.18a11.39,11.39,0,0,0-7.08.17c-2.06.72-3,3.18-5.85,3.46s-4.9-2.12-6.74-1.56-1.56,2.84-2.62,3.85-2.56,1.28-4.24-.17-2.51-2.34-5.24-2.06-3.4,1.67-5.46,4.07.78,5.29,1.84,7.8a12.64,12.64,0,0,1,.84,7.36c-.39,2.84-2.9,7.19-4.24,8.64s-3.85,2.62-4.63,3.85-.28,4.9-1.23,6.3-2.73,4.07-3.85,4.57-3.51,1.28-3.4,2.51,2.12,2.51.39,3.23-.45,3.73-1.28,5.41-.84,3.85-3.23,3.9-3.73-.56-5.29.45a26.6,26.6,0,0,0-4.07,3.9c-1.45,1.45-4,2-6.07,2.12s-5.57.45-8.19.84a37.51,37.51,0,0,0-8.47,2.62,23.83,23.83,0,0,0-5.52,3.9c-1.28,1.11-3.51,1-5.35,1s-4.07,1.78-6.19,3a77,77,0,0,0-8.36,5.52c-2.17,1.73-3.46,2.79-6,2.56s-2.73-1.73-4.9-2.73-2.62,1.17-4,2-2.84-.17-3.73-1.78a5.05,5.05,0,0,0-3.73-2.62c-1.34-.17-2.51-.28-3.85-3s-1.89-5.68-3-7.75.33-4.07,1.62-5.8a11.43,11.43,0,0,0,2.34-5.91c.28-2.45-2.23-6.41-3.73-7.75s-3.29-.78-3.62-2.45,1.23-2.79.89-4.85-2.12-2-2.84-3.4.11-3.34-.95-4.63-2.73-1.28-3.51-1.78-2-1.34-2.68.06,3.18,2.06,4.29,2.62.67,3.07.61,3.85a3.45,3.45,0,0,0,1.56,2.73,2.55,2.55,0,0,1,.84,3.46,8.55,8.55,0,0,0-1.11,4.18c.06,1.17,2.79,2.62,4.29,3.46a7,7,0,0,1,3.46,4.9c.39,2.34-.45,3.62-3.23,5.8s-2.17,3.51-1.39,5,2.79,6,2.12,8.58-3.9,4.12-6.19,4-5.13-1.89-7.3-2.79-2.28,1.73-4.4,3.12-3.51-.17-4.85-2.29,2.34-5.85,3.46-7.91,3-4,2.45-5.91-1.34,1.5-2.51,2.34-2.62,2.12-3.34,1.67-2.73-2-2.68-.28,2.34,2.84,2.29,4.51-2.34,5-3.9,6.35-4,2-7.3,1.89a85.32,85.32,0,0,1-10.25-.67c-3.79-.56-5.24.5-7.47,2.34s-6.63,2.56-8.42,3.07-.67,2.9-.78,4.68.33,5.18-.45,7.52-1.5,2.62-3.9,3.62-.84,2.79-.84,4.4-2.4,4.79-3.51,5.52-2.84,5-4.07,6.08-1.23,2.62-2.51,2.34.06-1.23-1.28-2.29-3.07-2.51-3.62-4.29.5-2.73.39-3.85-3-1.62-4.63-2.79-1.06-3.73-1.67-4.51-1,1.39-2.79,1.17-1-2.29-1.17-4-1.45-1.06-4.24-.45-2.29,1.23-2.68,3.34,2.23,4.18,2.9,5.52a8,8,0,0,0,4.63,3.46,15.53,15.53,0,0,1,4.63,2.56c1.17.78,2.34,1.73,2.34,3.4s2.06,4.24,2.84,5.07,2.4-1.17,3.4-1.39-.39,2.73-1.34,4-3.29,2.56-5,3.85-4.07,5.35-5.18,7.47-5.8,6.74-6.46,7.36-3.73,3.07-4.35,2.4,2.73-2.12,3.12-3-1.11-5-2.12-3.18-.39,4-2,4.35-2.17-2.17-3.79-2.29-2.68,1.67-3,3.07-.72,5.68-2.12,5.8-4.35-1.56-5.41-.95,0,3.4.61,4.07,3.57.61,4.24,1.34-1.56,1.89-3.34,2.9-2.79,2.45-4.29,2.29-3.4-4.07-4.74-5.52,0-5.13.22-7.3-1.28-3.46-2.51-2-.89,2.4-.72,5.29-1.06,3.4-1.62,5.91-.45,7.3.17,8.92,2.34-.11,3.51-1.34,3.18-3.23,3.23-1.84-3.4,4.35-4.24,5a4.89,4.89,0,0,0-1.34,4.74c.56,2.12,5.46-.56,6.52-.33s.89,7.13.89,9.2-2.23,7.69-2.45,8.14-2.4,3.62-3,3.46-.28-2.06-.17-4.12-1.34-8.14-3.79-10.14-4.24-2.51-6.91-3.9-4.35-.33-7-.67-5.57.11-7.47,1.89-2.79,2.79-5.57,3.34a14.49,14.49,0,0,0-7.47,4.35,4.89,4.89,0,0,1-5.68,1.34c-1.56-.67-.67-4.68-1.45-6.69s-3.12,3.46-3.57,6.35-.22,5.57-3.46,6-5.68-1.34-8.58-3.12-6.69-2.12-11.37-4.9-4-5.8-4.12-8.58-2.79-1.34-4.12-3.79,2.45-5,4.35-5.35,5.91,1.11,8.92,1.78,3.12-1.45,4.35-4.12.67-3.68-.67-6.24-2.23-3.23-1-5.24,4.35,0,4.46-2.12,1.45-2.9,3.68-2.9,2.68-.56,2.23-2.79,1.67-1.67,3.57-1.67.78-3.57,1.56-7.69,4.57-3.34,8.25-4.57,5.35-1.78,2.9-6.13.56-4,2.34-6.24,2.56-4.9,1.11-6a8,8,0,0,1-3.57-6.35c0-3.23.11-4.79-1.34-8.25s.56-4,1.89-5.24,8.47-3.9,10.37-4.68,4.35-1.78,4.9,1.56-1.23,7.13-2.79,9.47.89,3.68,1.89,2.79,4.35-2.23,4.12-4.79.78-5.57,2.68-3.57,2.68,2.68,3.9,1.67,1.45-4,3.34-4.35,1.23,3,1.67,5.57,1.67.89,3,2.79,3.12,3.12,4.35,1.45.45-3.79,1.67-3.79,2-1.45,3.12-3.68,1.45,1.89,3.46,3.23,1.56,4.79,3.46,7.36,2.23-.78,3.46-2.12,4.9-.33,7.69-.33,4-1.45,4.35-2.12-1.11-2-4-2.23-2.45-3-3.57-4.46-2.56-.22-5.68-3,.89-3,2.34-3.68,2.68-1.89.89-3.57-.56-3.34.11-5.46,2.12-4.57-.11-8.81-3.23-4-5.8-4.68-4.46.56-5.91-1.89-2.79-2.79-5.13-4.24-3-2.56-2.9-4.9,1.45-4.79,1.11-7.13-2,.78-4.46.67-3-1.67-2-3.79,5.24-2.23,4.12-4.79.22-5.35,1-6.91,1.56-2.56-.11-5.68-4.35,0-4.79,1.67-3.34,2-5.35-.11-2.34-3.68-2.9-6.13-3.9-3.57-5.46-3.57-3.34-2.45-4.46-5.46-.11-4.46.78-6.13,2.56-4.12,2.56-6.69-.33-3.68,1.11-5.46,3.12-2.68.45-3.9-1.56-2.45-.78-3.79,2.68-3.9,1.11-4.46-2.45-2.45-2.9-5.24-2.23-1.78-4-2.34-.89,2.56-2.45,4-4.79-1.45-8.47-4.46-1.34-6.13-3.12-10.48-6.8-1.34-10.25-2.68-3.46-1-6,0-2.23,6-4.68,5.68,1.45-4.68-.45-7.36-2.9,3.46-4.68,3,1-3.12,2.23-4.46,0-3.9-1.56-4.24-3.68,2.34-6,2.79,0-2.23-1.56-4.79-1.89,2.12-4.68,2.34,0-3.34-.56-6-2.34-1.23-5.57-1.67-5.35-4.46-7-6.69-3.9-4.12-6.58-4.12-3.12,1.67-6.24-.78-2.79-1.34-5.24.56-2.79,1.78-5.68.45-4.12,1.67-4.9,3.34-3,2.79-5.68,1.45c-2.3-1.15-6.35-3.9-7.58-2.34s-2,4.12-5.57,1.67c-1.78-1.23-3.57-2.23-6.35-.78s.78,5.46-1.56,7.36-3.23-3.34-5.8-3-2.12,3.9-3.46,5.68-3.34,3.12-6.35,1.45-.89,2.34-4.79,2.34-4.79.56-6,3.23-3.12,6.35-4.24,8.47-5.8,3.46-8.14,3.23-3.79-.67-5.46.11-2.9,1.23-6.13.78-2.79,1.23-4.9,2-4.9.33-8.92-.45-6,.11-10.81.22-9.14,3.9-11.59,7.25-7.8,7.8-10.14,7.91-6.46-.78-7.69-3.68-.56-4.79-2.34-5.91-5.46-2.12-6.46-4.35-.78-3.68-4.46-6.8-3.57-.45-5.57-1.45-2.34,1.11-4.68,1.11a7.51,7.51,0,0,0-5,2.12c-1,.89-4.24,0-5.8-.78s-2.67.22-4.57-1.78-4.12-3.68-7-3.57-4.24,4.35-5.46,2.34-1.45-2.9-4.57-4-5.8-1.11-8.47-2.34-3.23.11-4.46,1.45-1.56-1.56-6.13-3.12-6.58-8.14-8.81-9.59-4.24.45-5.35,2.56-2.79,6.13-5,5.8-3.9-2.45-4.24-.78-3.12,4.35-5.13,3.23-1.11-3.68,0-5.35a5.59,5.59,0,0,0-.45-6.47c-1.67-2.23-2.56-1.67-5.13-1.11s-5,.11-6-1.78-2.34-7.58-3.79-9.92-2.12-1.45-5.24-1.45-2.45-3.12-3.9-5.57-2.56-6.58-4.12-8.47-2.68.56-5.13.67-.11-3,1-7.36,1-6.24,2.68-8.25,8.25-4.68,9.47-6.47,0-2.45,0-4.79,2.68-2.12,2.45-3.9-.78-2.45.45-4,3.23-2.23,3.79-4.12.33-3.12,2-5.35,4.24-.33,5-1.67-.45-5,1.67-6.69,3.23,4.46,5.24,4.46,3.9-.56,5.24,1.45,5.8,5.35,5.24,3.57a27.16,27.16,0,0,1-1.23-7c0-2.23-5.91-5.91-7.36-7.69s1.56-4.35,2.79-6.35,2-3.57.89-5,.45-4.79-1.67-7.47.78-4-.33-6-.11-4.68,1.89-7.36,8-8.25,10.48-10.7,8.69-9.59,11.37-12.82S79.66,160,83.67,156.95,90.14,150.82,94,149s4.24-4,6.13-5.68,3.79-1.11,7.13-1.11c2.71,0,4.79,0,6.24-3.12s1.67-4.35,3.46-4.68,1.89-3.57,1.89-6,.78-4.68-1.11-8.69-3.68-4-4.79-6.58.67-3.57,2.9-3.23,5.57.45,5.91-1.78-2.68-3-4.9-4.9a13.93,13.93,0,0,1-4.24-7.91c-.11-2.12.33-3.68-1.56-6.58s1.23-5.57-1.11-7.36-3.46-1.45-4.9-4.68-2.34-3.68-4-5.91.67-3.57,2.12-5,1.11-3.23,1.23-5.24-1-3.23-1.78-4.68,1.56-2,.78-3.57a13.67,13.67,0,0,1-1.67-6.35c-.11-3.12,5.13-2.34,8-2s6.91,4.57,10.25,5.46,5.35-5.35,10.25-7.47,7-3.46,6.69-6.47,2.79-5.13,4.68-6.69,8.81,0,13.82.33,8.92-.11,13.6-.11,7.58-3.34,12.26-3.9,4.57,3.68,8.25,4.57,8.25-.33,10.92,1.11,5.35-.11,8.14-1.11,2.9.89,7.13,2.12,5.24,0,8.36,1.34,3.46,3.23,6.24,4.9,5.35-1.67,7.58-.78,2.79,3.12,5.68,3a20.78,20.78,0,0,1,10.59,2.68c2.9,1.89,6.69,5.13,10,5.57s5.24-2.68,9.59-2.45,2.68,4.46,2.68,7.25,2,.11,4.24,2.79.22,4.12,1.56,4.9,5.46.56,6.58-.67,2-3.23,4.24-2.12,4.68,1.56,7.36,2.45.89,3.23.22,5.35S299,69,300,70.23s3.34,1.11,4.57-.78a25.11,25.11,0,0,0,2.45-6.8c.45-1.78,1.78-3.46,3.23-2.12s3.23,3.46,5.13,3.57,4.9.22,6.46-1.11,2.34-4.79,5-5.46,2.45,3.23,3.46,5.46,2.12,3.57,4.24,2,5.57-1.45,7.8-.67,3.9,2.23,4.24,4,0,5.8,1.34,7.47a2.63,2.63,0,0,0,4.57-1.23c.22-2.12,2-6.69,3.9-8.58s4.24-.22,7.58-1,2.79-4.79,5.91-5.57,4,3,5.46,5.57-.78,6.13-.11,8.14,2.45,3.34,2.79,5.68,3.34,2.12,4.57.33,4,1.34,5.35-.67,2.68-3.9,3.9-4.35,3.46-2.79,6.69-1.89,1.89,3.9,4,5,6.8-2.12,8.25-3.9,6.8-1.34,9-1.34,3.79,2.23,5.68,4.79,4.68,2.12,4.68,4.24.22,4.9,2.12,5.57,5.24,3,7.8,3.46,2.9-3,3.68-5.35,1.11-3-.67-5.13-.89-3.57-.89-7-2.68-4.12-3.79-6.69,1-4.79,1.78-6.69,2.79-3.34,4-5.91.67-4.68,1.78-6.91,1-4.12,4.57-6,4-5.13,6-6.35,3.12-1.78,2.56-3.12-.89-2.45.33-4.79S464,25,467.1,25s4.57,2.23,6.46,3.57,2.34-1.89,3-4.35,3-2.34,8.25-1.78,11.48,1.11,14.94,1.11,4.12.56,4.9,2.45,2.45,4.24,3.9,2.23,3.57-1.23,6-.22,4.57-1.11,8-3.34,3.68-3.57,3.46-6.13-.22-3.57,1-4.9,1.67-2.9-.56-5.13.33-3.79,2.34-4.35,2.56,1.45,4.68,1.45,5.57.89,7.36,2.56,3.46,4.12,5.68,3.12,4.12-1.45,5.68,0,3.46.33,4.68-1.56,1.78-3.34,4.12-3.57,4-2.68,5.24-4.68,2.45-1.67,4.24-.56,3.46.67,5.24.22,4.68-.22,5.46,2.56,2.79,2.79,4.35,1.23S590.27.34,593.73.22s5.13,3.34,7,5.24,4,5.13,5.13,5.35,4.79,2.9,4.79,5.91-.78,7.58.11,9.7.22,4.9,2,4.9a7,7,0,0,1,5.13,2.9c1.23,1.67,6.13,4.57,9.14,7.25s3.9,6.58,1.34,9.36-6.24.56-9,1.11-6.46,1.56-6,4,4.79,5.35,6.46,7.91.67,5.24.11,7S619.7,75,621.7,76a4.7,4.7,0,0,1,2.79,4.35,4.8,4.8,0,0,1-3.34,4.57c-2.23.56-.56,2.23,1.11,3.68s3.12-1.45,4-3.23,3.12-1.23,5.8.11,3.79,1.23,5.13.45a2.68,2.68,0,0,1,4.12,1.34c.78,2.12.67,3.34,2.79,4.79,1.69,1.16,6.58-1.11,9.36-2.45s6.58-2.79,8.47-2.12,3.9,4,4.12,6.35,1.89,6,4.46,6,5.13-2.56,7.36-1.23-.78,3.79-3.12,5,.19,3.57,2.34,4.35c2.45.89-.41,3.84,1.56,5,1.67,1,3.23,1.78,2.34,4.12-.64,1.68,2.23,3.34,3.34,7.69s.45,4.24-2.56,6.13.33,5.68,1.89,9.92,3.79,2.23,6,3.9,2.34,5,4.9,8.47,5.13-1.89,7-3.79,6.24-4.57,8.81-4.57,8.25,0,10.92,2.23,4.35,7,5.57,8.47,3.57-.45,5.24-2.12,2.9-.56,5.68.45,2.45,3,4,5.46,3.79.11,5.24-2.12a28.31,28.31,0,0,1,9.81-8.14,44,44,0,0,1,11.7-2.79c2.9-.33,6.91-3.57,8.25-5.68s3.79-2.56,6.35-2.79,2.79,1.34,2.9,4.12a5.57,5.57,0,0,0,5,5c2.12,0,3.68,1.78,3.57,5.13s1.89,5.13,3,7.13a10.86,10.86,0,0,0,7.36,5.91c4.24.89,5.8,2.79,7.91,5.13s3.68,4.9,5,5.24,4.9-.89,6.58-1.78.56-4.24.33-6.35a5.36,5.36,0,0,1,2.68-4.9c1.23-.45,3.57.22,4.9,2.34s2.23,3.34,3.9,3.23,2.79,0,3.23,1.78,2.9,1.56,4.57,1.11,4-4.12,6.13-2.68.67,3.12,3.57,5.68,4.79.67,7.36,1.23,2.56,3.79,4,4.57,2.9-.22,4.79-2.23,4.12-5.13,5.91-4.79,3,1.89,5.35,6.58c1.11,2.21,3.34,3.79,5.24,3.46s2.45-3.12,4.79-3,2.23,1.67,4.46,1.67,2.34,1.23,4,4.68,2.23,4.68,4.46,4.9,3.9.78,5.24,2.45,3.68,1,5.8-.45,4.24-4.9,6.13-5.57,4.57-.89,6.46.22,1.11,3.23-1,5.24-2,2.68-1.67,5.91,3.46,6.91,4.79,8.36,2.23,4.68,2.23,7.25-1.56,4.57-4.68,6.47-3.12,5.24-3.9,6.47.94,4.93-2.45,5c-4.35.11-3.34,1.78-5.57,2.9s-3.9-.22-5,2.45,2.23,4.12,4.24,6.35,4.9,1.34,7,1.89,4.24.56,5.57-.45,3.23-2.34,4.79-.67-.11,5.68-3.57,7.8-4.24.33-6.69-1-3.46,1-5.35,2.79a8.23,8.23,0,0,0-3,6.58c-.11,3.23-1.34,6.47-.33,8s4.12,1.56,6.46,1.56,4,.11,4.68,2.45-.45,5.35.56,6.47,4.57,3.57,5.13,6.47-3.46,3.12-4.68,4.68,1.89,2.23,3.9,2.34,3.46-2.23,5-.89,0,3.57-2.34,4.9-3.12,5.24-3.57,7.47,1,6.13-1,7.8-2.56,1.56-1,3.46,1.78,1.89,1.78,4.68.45,7.69-2.9,9.81-3.57.45-6.8-.78-4.24,1-6.46,1.56-3.57.89-6-.56-4.79-.22-8.14.67-2.56,2.56-5.35,1.78-1.89-3.12-3.68-2.45-2.45,2.12-6.58,1.34-5.8,4.46-6.13,7.25.11,5.91-1.45,7.25-3.34.33-4.9,3.57-3.46,3.12-7.36,3.79-7.91,3.68-10.14,6.13,1,8.92.78,12.48-3.46,4.24-3.79,6.91,2.68,1.11,5.13,2.23-.45,3.57-2.34,5.35-.22,3.46.22,5.57.11,5-1.23,6.13-1,4-2.68,4.46-.89-2.34-2.23-4-2.68-.11-4.24.22a39.89,39.89,0,0,1-9,.11c-2.45-.33-3.34,2.34-6.58,2.45s-7.47-.89-10.48.67-4.12,9.59-6,12.37-2.12,3.9-4.68,3.12-2.68-2-4.9-1.89-13.38,8.47-16.94,10.81-1.78,5-3.57,6.47-3.68-1.45-6.35-2.23-10.92,2.79-14.6,5.13-5,4.57-6.69,7.47-2.34,1.23-4-1.11-3.79-.45-9.25-.67-8.69,2.9-13.71,5.8-5.46,6.35-8.25,10-4.79,2.68-7.47,5.24a24.58,24.58,0,0,0-5.24,7c-.89,1.89-2.45,4.57-3.46,6.69s-3,5.46-4,7.58a14.2,14.2,0,0,1-4.9,5.46c-2.23,1.56-5.8,3.57-7.69,2.45s2.23-4.12,3.57-5.35,5.68-1.78,7-3.46,5.91-7.69,6-9.14.89-2.45-.67-3-1.34-1.56-1.67-3.57.22-3.34-1.34-4.46a13.83,13.83,0,0,1-3.79-4.9c-.89-1.78-1.56.89-.45,3.46s2.79,2.79,2.23,5.57-2.45,4.35-4.46,6.13-5,5.35-7,6.58-3.68.22-5-1.11-.33,2.12-1.11,3-2.68,1.45-2.56,3.68,1.34,3.68,1.11,6,.67,2.68,1.56,6.35,0,4.12,1,6.58,3.34,4.46,4.79,6.8,2.23,5.13-.11,4.35-2-3.68-4.24-3.46-1.56,2.12-3,.56,1.23-2,1.23-3,.45-3-1.34-4.68-.22-3.57-1.23-5.68-2.12-.56-3.68-1.23-2.9-2.9-3.34-5.13.67-2.79,2.34-1.78,2.79.89,2.79-.56-1.34-2.45-2.79-3.9a3.23,3.23,0,0,0-4.9.78c-.67,1.56-.45,3.34.11,5.91s-.45,2.9-1.78,4.46-2.45,2-4,3.34-1.89,1.56-2.68-.56-2.45-.78-3-2.45,1-2.34.78-4,1.56-2.79,3.46-2.9,3,1.34,3-.22.56-3.9-.89-4.68-2.56,2.79-4.68,2.9-3.79-2.9-5.57-4.57-2.68.56-2.56,2.23,1.56,5.46,0,4.46-3.68-7.25-5.35-9.36-2.34-3.57-3.9-.89,2.79,4.24,3.23,5.68-1.67,1.67-2.9.33-3.12-.67-2.56,1,2,3-.22,3-4.9-2.79-7.36-4.79-3.68-2.79-6.46-2.56.22,2.68-1.56,2.68-1.34-4-4.24-3.68-3.12,3.23-3,4.9,2.23,2.56,3.34,3.79,2.45-.45,3.12-2,2,1.23,2,2.45,1.23,3,1.23,4.79,2.12,1.45,3.57,1.67,2.12,2.45,2.68,1.23-.33-2.79-1.34-4,.56-1.78,2.9-1.23,4.12,3.12,6,4.24,3.79.78,3.34,2.34-2.79,2.56-1.78,4.12,3.12.56,3.23-1.11,1.11-3.57,3.23-3.23,2.68.67,4,0a3.12,3.12,0,0,1,3.9,1.11c1.11,1.34.22,3.46-.89,4.9s-.56,3.68,1.34,3.68,1.34-3.68,2.45-4.68.67,2.34,1.45,4,3-1.67,4.46-3.12,2.23-4.68,3.57-4.12,1.23,2.9,1,4.79-4.57,4.9-6.58,6.24-3.34,3.79-1.34,5.24,6-5,7.58-6.58a8.45,8.45,0,0,1,5.8-2.79c2.23,0-.33,1.34-1.34,2s-3.34,3.46-2.34,5.13,3-.89,4.35-2.34,2.79-.45,2.68,1-3.12,4.68-3.34,6.24,3.34.67,4.9.11a2.69,2.69,0,0,1,3.46,1.23,4.18,4.18,0,0,0,3.46,2.34c1.56,0,2.56.22,3.68,2.23A23,23,0,0,0,690,532a20.69,20.69,0,0,1,3.23,5.24c1,2.12-.33,4.24-1.23,5.35s-3.68,1.11-2.34,2.9,3.34,4.9,5.57,6.13,3.57-1.78,5.13-.67a27.2,27.2,0,0,0,6.24,3c2.68,1,2.68,2.12,5.24,2.56s1.67-1.56-.11-2.56-6.13-5.57-8.14-8.47S694.26,534.71,692.7,532s-5.68-9.25-6.8-10.92-1.23-3.9,0-3,2.12,2.9,4.46,6.69,13.6,17.5,15.94,21,8.47,7.64,10.2,7.58,6.19-2,9.75-3.73,5-5.91,6.13-8.58,1.78-4.35,2.62-3.07-.06,2.51,1.5,4.35a13.93,13.93,0,0,0,6.85,3.79c1.62.17,3-2.84,4-5.35s2.68-4.46,5.68-4.46,3.68.89,5.24.39,6.85.84,10.37,1.28,6.24-.89,9.14.5,2.9,6.08,1.84,6.08-2.79.89-4.74.39-2.68.67-2.45,2.23-1,2.62-2.73,3-.56,3.23-1.45,6.08,1,5.46,1.89,7.41.95,3.07-1.17,4.63-5.07.95-7,.95-1.39,2.79-2.84,4.24-5.41-1.39-7.47-2.45-3.4-.06-4.18,2-3,1.45-4.29,1.39-3.07,1.5-5.29,1.67-4.74-4.4-7.69-7-4.79-2.56-9.59-2.34-8.25,6.41-9.36,8.58c-1.37,2.66,2.06,3.62.06,5.29s-4.79-.78-6.35.5-.33,2.06-3.29,3.51-2.95,3.07-3.34,4.79c-.5,2.17.11,4-2.29,5.29s-3.18-1.28-4.79-2.84-3.62-.61-4.63.45-3.18,1.23-5.24,1.17-4.74-.39-6.13,1.34a10.83,10.83,0,0,1-6.24,3.9,18.11,18.11,0,0,0-8.81,5.63,15.65,15.65,0,0,0-3.57,8.92c-.22,2.84-1.73,3.73-4.12,4.29s-4.24,2.56-5.41,4.35-1.45,3.79-5.91,5.24-3.79,1.84-6,3.18-4.74-.22-6.52-.89-2.73.84-5.29,1.23-4.9-1.84-6.8-3.68-2-2.9-3.79-3.68-4.24-.33-6.58-1.62-6-4.57-5.41-5.63,3-1.17,6-1.84,2.62-4.51,3.23-6.86-1.11-8-.39-10.7,3.62-2.62,3.68-5,.11-5.46-1-7.47-.72-3.46-1.67-7.41-5.8-5.8-8.19-7.47-4.74-.22-6.35,1.73-1.5.78-3.79,0-7.13-4.46-9.47-6.63-9-7.64-10.87-8.58-5.91-.61-7.64-.39-4.46,3.34-7.86,4.07-7.3-3.62-7.69-6.91,5.29-7.08,6.74-8.58,3.62-.78,5.07-1.89,2.73-2.45,4.24-2.45,1.34-.89,1.89-2.29,3.29-4.29,5.91-6.24,9.92-5,10.92-5.52,2.28-1.28,1.78-2.51-1.17-2.45-.22-2.34,2.12,2.51,4,3.29,5.63-2.68,8.3-4.85c1.78-1.44,3.07-3.23,5.18-3.34s3.51-.22,4.74-2.06,2.62-.33,5.18.39,1-2.12,2.56-3.46,2.29-3,1-4.29-3.4,1-5.57,1.23.89-7.08.39-10.31-.67-6.19-2.9-6.52-3.85,3.9-4.4,6.74-2.56,2.73-4.74,2.51-1.5-3.07-2.79-3.79-3.23.22-4.24-1.89-1.89-.84-4.29-1.45.61-3.73-.28-5.13-3.18,3.29-4.63,4.74-2.68.33-3.34-.28-2.23-2.17-2.23-.5-1.1,2.85-3.42,2.85a69.77,69.77,0,0,1-9.61-.47c-2.79-.47-2.63,1.86-6.66,1.55s-5.53,3.11-9.45,3.56C545.24,499.55,541.73,497.93,538.89,496.84Zm39.29,6c-1.05-1.05-2.84-2.84-4.35-2.93s-2.34,1.25-3.51.33-1.59-1.92-3.09-1.34-3.34,1.5-4.77,1.5-6.85-1.67-6.52-.33,2.42,1.59,4.1,1.59a9.32,9.32,0,0,1,5.1,1,9.52,9.52,0,0,0,5.27,1.09c1.5-.08,2,.33,4.18.59S579.26,503.95,578.18,502.86ZM488.76,209.19c2.14-1.95,1.8-4.26,3.44-4.91s1.31-3.44,1.15-5.57-.49-5.57-1.64-6.88-2.23-2.94-5.66-3.28c-1.67-.17-2.56-.95-4.68-.95s-2.45,1.28-5,2.23-5.07,1.56-6.46.72-4.35-2.34-5.57-3.9-3.4-3.73-4.12-5.07-1.28-2.68-3.34-2.84-4.57-.67-5-2.68-1.89-3.23-3-4.57-1.78,2.56-.33,4.46,4.29,4.12,6,4.51,4.29,2.9,5.18,4.07,3.12,4.79,5.18,6.52,5,1,6.46,2.4a5.15,5.15,0,0,0,4.51,1.39c1.62-.17,3.57-2.29,5.29-3.29s3.12-1.78,3.85.33.22,5,.89,6.74A7.52,7.52,0,0,1,486,204c-.67,2-1.28,4.4.39,5.18S488.13,209.77,488.76,209.19Zm-50.17-68.72c-.12-1.91-1.78-3.7-.2-5.42a8.3,8.3,0,0,0,2.45-5.62c0-2,.13-7.54.13-10.38a56.42,56.42,0,0,1,.73-9.85,15.06,15.06,0,0,0,0-6.21c-.33-1.59-1-3.24,0-4.89s2.31-5.09.46-4.5-5.09,2-6.54,1.59-3.57.66-2.84,2.58,1.52,5.22.26,6.74-7.47,2.18-6.35,3.77,4.63.53,6.21,1.85,1.85,3.31,1.85,6.08,1,4-.33,6.08-2.18,3.37-2.31,5.88.07,6,1.32,8.53S438.79,143.71,438.59,140.47Z"/>

        <path id="granica" class="cls-3" d="M889,330.48l-.07,0a11.75,11.75,0,0,0-1.59.82c0-.63,0-1.28,0-1.92,0-1.27,0-2.48-.07-3.37-.2-2.31-.5-4.16-2.39-5.18-1.11-.6-3.17-.22-5,.12a13,13,0,0,1-4.09.36,2.71,2.71,0,0,1-2.32-2.2,11.36,11.36,0,0,1-.1-3.17c0-.5.06-1,.06-1.48,0-1.2-.32-1.27-2-1.48-.46-.06-1-.12-1.52-.23l-.37-.08a17.72,17.72,0,0,1-6.92-2.66c-2.3-1.46-2.17-3.56-2.07-5.25a5.71,5.71,0,0,0-.12-2.17c0-.11-.12-.29-.23-.33-.39-.15-1.49.43-2.23.81a13.82,13.82,0,0,1-1.74.81c-2.47.86-5.7-1.53-6.31-3.12-.45-1.17.71-2.13,1.83-3.06.55-.45,1.69-1.39,1.63-1.77-.25-1.41-1.92-2.93-3.69-4.36a6.18,6.18,0,0,0-2.34-1c-1.23-.35-2.75-.77-2.84-2.7s-.44-2.67-2.4-4.71c-1.79-1.88-2.28-4.19-2.76-6.43-.11-.54-.23-1.1-.37-1.63a10.25,10.25,0,0,1,.15-4.69,11.37,11.37,0,0,0,.32-3,14.44,14.44,0,0,1,.05-2.21c.14-1.82.25-3.25-1.44-4.83s-1.71-2.81-1.44-3.92c.12-.5.17-.68-.11-1-.67-.87-2.68-.78-4.46-.69-.74,0-1.51.07-2.21,0-2.74-.11-4.65-1.93-5.36-5.13-.28-1.28-.64-1.26-2.12-1.19a13.91,13.91,0,0,1-1.8,0c-2.61-.21-8.65-2.73-10.82-4.8a9.32,9.32,0,0,0-8.74-2.13c-3.07.85-5.13,3.16-6.63,4.86-.27.3-.52.59-.76.85-.42.45-.86.88-1.28,1.29a22.15,22.15,0,0,0-3.58,4.22c-.57.91-.27,1.52.3,2.53s1.24,2.17.12,3.5a12.31,12.31,0,0,1-2.22,2.05,21.81,21.81,0,0,0-2.78,2.47,11.59,11.59,0,0,1-3.52,2c-1.45.65-3.44,1.53-3.27,2.26.66,2.9-.38,4.15-1.06,4.64-1.18.84-3,.71-4.67-.33s-2.93-.34-4.78.92l-.65.44c-1.4.91-2.56.24-3.58-.34a6.28,6.28,0,0,0-3.74-1.08c-.63,0-.84.18-.87.24-.26.49,1,2.43,1.57,3.36a21,21,0,0,1,1.19,2c.62,1.29.5,3.35,0,5.38l1,.56c1.8,1,3.5,2,3,4a11.14,11.14,0,0,1-.56,1.59c-.22.53-.72,1.78-.56,2.06a1.1,1.1,0,0,0,.57.1c.49,0,.66-.27.81-1.93.09-1.06.19-2.15,1-2.74a2,2,0,0,1,1.66-.28,4.85,4.85,0,0,1,3.53,2.23,4.47,4.47,0,0,1-.11,3.87c-.29.69-.6,1.35-.91,2-.93,1.94-1.74,3.61-1.51,5.65a12.62,12.62,0,0,1-.19,3.25c-.31,2.11-.41,3.25.92,4,2.67,1.59,5.1,3.25,5.5,6.17a6.31,6.31,0,0,1-1,3.75c-.58,1.13-1.09,2.1-.81,3.13.15.58.4,1.28.66,2,.94,2.64,2,5.64.33,7.31a7.45,7.45,0,0,1-3.6,2,4.36,4.36,0,0,1-4.11-1.16c-.47-.47-.89-1-1.3-1.45-1.41-1.66-2.27-2.57-3.58-2.11l-.76.26c-1.39.46-3,1-3.41,1.9a2,2,0,0,0,0,1.56,30,30,0,0,0,2.48,5,26.14,26.14,0,0,1,1.26,2.34c.83,1.86-.74,3-2,3.85a12.89,12.89,0,0,0-1.73,1.38c-.9.9-.19,2,1.66,4.37.32.4.65.82,1,1.25a14.56,14.56,0,0,0,2.68,2.52c1.68,1.34,3.42,2.73,4,5a9,9,0,0,0,4.62,6.17,10.91,10.91,0,0,1,3,3.28c1.32,1.92,1.85,2.45,2.57,2a9,9,0,0,0,1.84-1.51c1-1,2.4-2.37,4.37-.4a18,18,0,0,1,2,2.59c1.39,2.05,2.83,4.17,5.06,4.49a5.4,5.4,0,0,0,3.14-.58c.67-.29,1.35-.59,2-.18s.75,1.24.75,2.53c0,4.26-1.5,5.42-3.76,7.16l-.19.14c-2,1.57-2.06,1.7-2.35,3.25l0,.13a3.55,3.55,0,0,1-1.52,2.35,5.2,5.2,0,0,1-4,.6l-.39-.08a17.1,17.1,0,0,0-2.17-.35c-.78,0-.95.1-.95.11s-.1.24.21,1c.19.47.38.89.54,1.26.91,2.1,1.46,3.37,0,4.88a1.62,1.62,0,0,0-.52,1.34c.1.81.87,1.68,2.17,2.45a10.65,10.65,0,0,1,3.69,3.82,15,15,0,0,0,2,2.55,2,2,0,0,0,2,.74c1-.09,2,0,2.77,1.79,1.44,3.27-.27,5-2.25,7-1.24,1.24-2,4.64-1.63,7.69l-1.53,1.08c-.66-3.65.11-8.08,2-10s2.88-2.88,1.91-5.11c-.38-.87-.49-.86-1.09-.8a3.62,3.62,0,0,1-3.3-1.22,16.61,16.61,0,0,1-2.19-2.82,9,9,0,0,0-3.15-3.29c-2.24-1.33-2.86-2.73-3-3.68a3.25,3.25,0,0,1,1-2.74c.66-.66.64-.86-.3-3-.16-.38-.35-.81-.55-1.29s-.73-1.77,0-2.7c.91-1.11,2.86-.71,4.74-.33l.38.08a3.57,3.57,0,0,0,2.69-.35,1.89,1.89,0,0,0,.82-1.27l0-.13c.37-2,.6-2.44,3-4.27l.19-.14c2.2-1.69,3.11-2.4,3.11-5.84a7.35,7.35,0,0,0,0-1l-.35.15a7,7,0,0,1-4.05.71c-3-.42-4.69-3-6.21-5.21a16.89,16.89,0,0,0-1.78-2.34c-.78-.78-.88-.71-2,.41a10.51,10.51,0,0,1-2.18,1.77,2.56,2.56,0,0,1-1.28.38c-1.49,0-2.58-1.59-3.49-2.92a9.59,9.59,0,0,0-2.48-2.8,10.61,10.61,0,0,1-5.37-7.18c-.44-1.71-1.89-2.87-3.43-4.1a16,16,0,0,1-3-2.83c-.3-.41-.63-.82-.94-1.21l0-.05c-1.73-.19-3.16-.23-4.54-.27s-2.77-.08-4.4-.27c-1.18-.14-1.42.25-1.89,1a3.28,3.28,0,0,1-3.11,1.92,4.51,4.51,0,0,1-4.28-2.47,9.76,9.76,0,0,0-1.15-1.46c-.34-.34-1.43.62-2.23,1.31-1.3,1.13-3.07,2.68-4.52,1.23s-.41-3,.47-4.25a6.57,6.57,0,0,0,1.45-2.94c.13-1-.37-1.38-1.71-2a3.87,3.87,0,0,1-2.47-2.38,6.36,6.36,0,0,1,0-2.63c.17-1,.22-1.53-.44-2.19-.37-.37-.72-.31-1.48,0a1.9,1.9,0,0,1-1.8,0,2.11,2.11,0,0,1-.65-1.8c0-.78-.32-.94-.44-1-.77-.41-2.52.06-4,1.06-2.64,1.8-4.42,1.07-6.88,0l-.53-.22a15.21,15.21,0,0,1-2.45-1.34c-1.41-.9-2.35-1.49-4-.93a7.87,7.87,0,0,0-2.39,1.44,7.26,7.26,0,0,1-5.14,1.92,14.63,14.63,0,0,1-5.85-1.34,20,20,0,0,0-3.86-1.22,21.73,21.73,0,0,0-5.26-.08,11,11,0,0,0,.45-1.71,21.86,21.86,0,0,1,5.12.15,21.38,21.38,0,0,1,4.17,1.31,12.9,12.9,0,0,0,5.23,1.22,5.65,5.65,0,0,0,4.11-1.57,9.48,9.48,0,0,1,2.88-1.7c2.37-.83,3.91.15,5.4,1.1a13.65,13.65,0,0,0,2.19,1.21l.53.22c2.41,1,3.41,1.41,5.3.12,1.71-1.17,4.14-2,5.7-1.16a2.61,2.61,0,0,1,1.33,2.49c0,.13,0,.23,0,.31l.24-.08a2.84,2.84,0,0,1,3.2.45,3.61,3.61,0,0,1,.9,3.64,4.77,4.77,0,0,0,0,2c.12.52.68.82,1.58,1.26,1.24.6,2.93,1.43,2.64,3.75a8.08,8.08,0,0,1-1.76,3.71c-1,1.44-1.05,1.68-.65,2.09s1.43-.62,2.23-1.31c1.3-1.13,3.07-2.68,4.51-1.23a11.27,11.27,0,0,1,1.35,1.7c.77,1.13,1.2,1.75,2.9,1.75,1,0,1.26-.42,1.68-1.12a3.14,3.14,0,0,1,3.5-1.8c1.56.18,2.87.22,4.25.26,1,0,2,.06,3.15.14-1.06-1.61-1.62-3.27-.15-4.74a14.39,14.39,0,0,1,1.95-1.56c1.43-1,1.66-1.3,1.43-1.8s-.7-1.35-1.18-2.18a31.82,31.82,0,0,1-2.6-5.31,3.59,3.59,0,0,1,0-2.85c.75-1.54,2.68-2.19,4.38-2.76l.73-.25c2.45-.86,4,1,5.41,2.6.39.46.79.93,1.21,1.35a2.67,2.67,0,0,0,2.59.71,5.74,5.74,0,0,0,2.76-1.58c.93-.93,0-3.61-.72-5.57-.27-.77-.53-1.5-.7-2.15-.44-1.66.3-3.08.95-4.33a5,5,0,0,0,.85-2.75c-.28-2-1.86-3.28-4.7-5-2.35-1.4-2-3.7-1.72-5.72a11.37,11.37,0,0,0,.18-2.82c-.28-2.52.71-4.58,1.67-6.56.3-.62.6-1.25.87-1.9a2.93,2.93,0,0,0,.18-2.45,3.33,3.33,0,0,0-2.4-1.37.57.57,0,0,0-.32,0c-.19.14-.27,1.05-.32,1.54-.12,1.29-.31,3.45-2.48,3.45a2.2,2.2,0,0,1-2-.84c-.66-1-.12-2.32.4-3.62a10.09,10.09,0,0,0,.48-1.34c.16-.69-.49-1.13-2.24-2.13l-.6-.35a11.57,11.57,0,0,1-2.08,4.11c-1.5,1.5-3.43-.08-5.31-1.61a22.69,22.69,0,0,0-2.8-2.06,2.06,2.06,0,0,0-1.55-.36c-.82.22-1.47,1.37-2,2.38-.17.31-.35.63-.54.92s-.48.88-.74,1.4c-1,2-2.28,4.64-5.19,4.73a2.55,2.55,0,0,1-2-.67c-.8-.82-.72-2.13-.64-3.52a11,11,0,0,0-.12-3.17c-.57-2.33-2.69-3.31-4.75-4.26l-1.13-.54c-1.79-.9-1.35-2.56-1.06-3.66s.46-1.88-.16-2.56a14.54,14.54,0,0,0-4.52-2.71,25.67,25.67,0,0,1-4.31-2.33c-2-1.48-1.5-3.45-1.11-4.9.31-1.16.47-1.91.05-2.49-1.25-1.71-4.27-1.95-6.15-1a14.34,14.34,0,0,1-6.89,1.84c-2.6,0-12.07-1.83-16.68-4.6l-1.06-.63a58.44,58.44,0,0,1-9.87-6.85c-2.73-2.42-2.87-2.45-4.66-2.8-.4-.08-.89-.18-1.49-.31a28.69,28.69,0,0,0-6.79-.54c-.81,0-1.65,0-2.49,0l-1.28,0c-2.28-.1-3.78-.16-4.79.64a13.89,13.89,0,0,0-1,1,13.67,13.67,0,0,1-5.43,3.55c-3.33,1.23-7.83,4.31-10.66,6.58a48.9,48.9,0,0,0-7,7.64c-.93,1.19-.61,1.78.09,3.09a9.79,9.79,0,0,1,1.24,3.39,20.79,20.79,0,0,1-.13,8.15,3,3,0,0,1-1.16,1.53,15.46,15.46,0,0,1-1.34-1.14,1.65,1.65,0,0,0,.9-.89,19.51,19.51,0,0,0,.07-7.42,8.15,8.15,0,0,0-1.06-2.83c-.75-1.4-1.53-2.85.06-4.9a50.28,50.28,0,0,1,7.24-7.92c2.93-2.35,7.61-5.55,11.13-6.85a12.06,12.06,0,0,0,4.83-3.17,15.08,15.08,0,0,1,1.16-1.07c1.49-1.2,3.34-1.12,5.9-1l1.26,0c.75,0,1.51,0,2.24,0-.58-2.94-1.48-9.49.35-11.41a1.9,1.9,0,0,1,1.8-.56,15.31,15.31,0,0,1,3.4,1.41c2.55,1.27,5.43,2.72,7.05,1.1l.85-.84c2.47-2.43,4.41-4.36,4.41-6.92a14.22,14.22,0,0,0-.9-3.84c-.66-2-1.18-3.6-.44-4.63a1.86,1.86,0,0,1,1.61-.72c.77,0,1.59.08,2.38.15,1.13.11,2.84.27,3.2-.09.06-.06.05-.21,0-.3-.07-.82-1.12-1.86-1.81-2.54s-1.4-1.38-1.1-2.13a1.37,1.37,0,0,1,1.37-.7c.31,0,.43-.06.46-.1.27-.39-.35-2.1-.68-3l-.08-.23a13.49,13.49,0,0,1-.52-2.47c-.15-1-.37-2.5-.78-2.74-.07,0-.22,0-.31,0a10.72,10.72,0,0,0-1.89,1c-1.68,1-4,2.36-6,.35-2.34-2.34-5-5-5-8,0-.37,0-.74,0-1.1,0-1.24.07-2.42-.4-2.91a1.86,1.86,0,0,0-1.34-.38c-1.77,0-3.47-1.09-5.26-2.24s-3.5-2.25-5.35-2.41a5.85,5.85,0,0,1-4.49-2.84,6.29,6.29,0,0,1-.58-5.52,4.84,4.84,0,0,1,1.33-1.66,4.51,4.51,0,0,0,1.84-3.73,6.9,6.9,0,0,0-.8-2.93,4.92,4.92,0,0,1-.62-2.3c-2-.85-3.23-1-4.68-.21-.63.36-1.44.94-2.31,1.56-2.07,1.48-4.22,3-5.71,3a6.59,6.59,0,0,1-2.3-.42,5.26,5.26,0,0,0-1.89-.35c-.43,0-.93,0-1.46.09-1.54.13-3,.26-3.81-.49a1.66,1.66,0,0,1-.53-1.26c0-1.24,1.13-1.74,2-2.15,1.32-.59,1.45-.81,1.3-1.35-.54-2-3.39-4.07-5.27-5.47l-.53-.39c-2-1.53-3-2.7-3.07-3.8a1.94,1.94,0,0,1,.6-1.54c.16-.16.05-.66-.27-1.26a10.94,10.94,0,0,0-1.85-2.36,11.32,11.32,0,0,0-1.24-1c-1.6-1.17-4-2.94-2.94-5.85a6.52,6.52,0,0,0,.08-4.95,1.2,1.2,0,0,0-.8-.66c-1-.19-2.14.77-3.33,1.8-.45.39-.91.79-1.38,1.13a9.24,9.24,0,0,0-1.45,1.57c-1.15,1.42-2.72,3.37-4.76,2a10.43,10.43,0,0,1-2.22-2.3c-1.13-1.43-1.89-2.3-3-2.21-1.94.16-2.31.74-3.4,2.47l-.36.56c-.2.31-.36.59-.52.87-1.13,2-2,2.69-5.6,2a26.38,26.38,0,0,1-4.09-1.07,14.48,14.48,0,0,0-4.1-.88c-1-.08-2-.08-2.92-.09-2.27,0-4.23,0-6.15-1a14.72,14.72,0,0,1-2.61-1.84c-1-.85-1.68-1.37-2.19-1.17a4,4,0,0,0-1.25,1.08,4.84,4.84,0,0,1-4.14,2.07,7.09,7.09,0,0,1-2.9-.88c-.75-.38-.88-.45-1.37-.1a6.52,6.52,0,0,0-1.59,2,11.85,11.85,0,0,1-2.49,3.18,25.78,25.78,0,0,0-1.89,1.92c-2,2.19-4.57,4.92-7.72,5.66a29.47,29.47,0,0,1-11.7.47,10.73,10.73,0,0,1-3.62-1.8c-.8-.54-1.62-1.1-2-.92-1.89,1-3.88.17-5.06-.33-.54-.23-1.74,1.12-2.32,1.77-.23.25-.44.49-.64.69s-.3.32-.46.5A5.71,5.71,0,0,1,522,162a5.61,5.61,0,0,1-1.8-.36c-1.07,2.4-2.42,6.71-2.89,8.26a22,22,0,0,1,1.93,2.26,23.61,23.61,0,0,0,1.75,2.07c1.13,1.13,1.81.85,3.29.23.35-.14.71-.29,1.1-.43a2.31,2.31,0,0,1,2.88.84,3.28,3.28,0,0,1-.72,4c-.76.76-.76,1.26-.66,1.66a6.43,6.43,0,0,0,1.84,2.54,24.45,24.45,0,0,0,2.38,2,15.6,15.6,0,0,1,4.18,4.33c1.61,2.61,0,5-1.47,7.36a23.61,23.61,0,0,0-1.64,2.8c-.35.75-.18,1.09-.13,1.2.51,1,3.07,1.61,5.33,2.11.77.17,1.58.35,2.33.55,3.12.84,3.58,3.4,3.92,5.27a4.72,4.72,0,0,0,.78,2.32,3.64,3.64,0,0,0,2.23.73c1.21.14,3.05.35,3.05,2.56,0,.62.5,1,1.64,1.63,1.33.76,3.15,1.81,3.15,4.34,0,3.29-1.79,4.71-3.22,5.84l0,0a10.94,10.94,0,0,0,.39-2.57,4.51,4.51,0,0,0,1.18-3.29c0-1.46-.87-2.07-2.31-2.89-1.16-.67-2.48-1.43-2.48-3.08,0-.61-.12-.73-1.57-.9a5.07,5.07,0,0,1-3.22-1.2,5.81,5.81,0,0,1-1.25-3.2c-.33-1.82-.61-3.39-2.71-4-.72-.19-1.5-.37-2.26-.54-2.88-.65-5.61-1.26-6.47-3a3,3,0,0,1,.11-2.65,24.9,24.9,0,0,1,1.75-3c1.55-2.39,2.46-3.94,1.45-5.57a14,14,0,0,0-3.78-3.89,25.75,25.75,0,0,1-2.53-2.16,7.69,7.69,0,0,1-2.28-3.32,3.28,3.28,0,0,1,1.11-3.24,1.66,1.66,0,0,0,.49-1.9c-.16-.26-.47-.31-.91-.16s-.7.27-1,.4c-1.57.65-3.2,1.32-5.11-.6a24.79,24.79,0,0,1-1.88-2.22c-1-1.33-2.11-2.7-3.08-2.93a2.7,2.7,0,0,0-2.42.64,1.38,1.38,0,0,0-.35,1.4c.71,2.69-.73,4.13-2.91,6.31s-3.05,3.63-2.36,6.09c.93,3.32-.92,6.67-2.79,8.54a13.39,13.39,0,0,0-1.6,2.7c-1.45,2.84-3.26,6.38-6.21,6.09-1.07-.11-1.93-.23-2.7-.37a15.46,15.46,0,0,0,0-1.71c.81.16,1.72.29,2.9.41,1.81.18,3.34-2.79,4.56-5.18a13.55,13.55,0,0,1,1.91-3.12c1.67-1.67,3-4.45,2.36-6.91-1-3.56.83-5.77,2.79-7.72,2.23-2.23,2.92-3,2.47-4.7a3,3,0,0,1,.77-3,4.35,4.35,0,0,1,4-1.1,3.34,3.34,0,0,1,.65.23c.6-1.94,1.79-5.65,2.8-7.91-2.16-1.15-4.32-3.05-5-4.67a12.48,12.48,0,0,0-1.42-2.29c-1-1.41-1.88-2.63-1.59-3.69a1.55,1.55,0,0,1,.91-1,4.26,4.26,0,0,0,2.25-2.67.32.32,0,0,0-.21-.34,8.13,8.13,0,0,0-2.19-.6c-1.51-.28-3.22-.59-4.25-2a13.17,13.17,0,0,1-.86-1.38c-.41-.72-.92-1.62-1.35-1.68-.14,0-.54,0-1.35.83a30.71,30.71,0,0,1-7.17,5.47c-.49.27-1,.55-1.44.82-2.17,1.26-4,2.35-5.81,1.83a3.07,3.07,0,0,0-2.3.55,8.29,8.29,0,0,1-2.11.82,2.67,2.67,0,0,1-2.53-.7,2.27,2.27,0,0,0-1.39-.64,5.85,5.85,0,0,0-1.65.12,3.1,3.1,0,0,1-3.47-1.06,10,10,0,0,0-1.66-1.53c-1.18-.94-2.41-1.92-2.69-3.49a7,7,0,0,1,.44-3.17c.35-1.18.68-2.3.19-3.12-1.29-2.13-4.16-5.77-5.22-6.45-.73-.47-2.5-.23-3.91,0-.52.07-1,.13-1.46.17l-.76.07c-3.23.3-6.83.56-8.77-.23-1.36-.55-2.53-1-2.81-2.07a2.69,2.69,0,0,1,.76-2.27c1.49-1.89,1.59-2.43.63-3.39a4.64,4.64,0,0,0-2.22-1,4.68,4.68,0,0,1-2.89-1.65,4,4,0,0,1-.89-3.29c0-.42.06-.95.06-1.65,0-.44,0-.84,0-1.23.07-2.11,0-2.73-1.34-3.14a4.44,4.44,0,0,0-1.84-.05c.08-.65.17-1.23.27-1.71a5.42,5.42,0,0,1,2,.16c2.66.79,2.6,2.74,2.54,4.8,0,.38,0,.77,0,1.18,0,.75,0,1.3-.06,1.75a2.46,2.46,0,0,0,.58,2.21,3.17,3.17,0,0,0,2,1,6.1,6.1,0,0,1,3,1.48c2.19,2.19.7,4.09-.5,5.61-.47.6-.46.81-.46.81a6.12,6.12,0,0,0,1.82.95c1.73.7,6,.31,8,.12l.78-.07c.42,0,.88-.1,1.38-.16,1.77-.24,3.79-.51,5,.29,1.51,1,4.62,5.14,5.75,7,.88,1.45.4,3,0,4.46a5.81,5.81,0,0,0-.4,2.4c.17,1,1.1,1.69,2.09,2.48a11.4,11.4,0,0,1,1.94,1.81c.51.65.83.62,1.87.44a7.41,7.41,0,0,1,2.11-.14,3.9,3.9,0,0,1,2.28,1c.43.35.57.47,1.15.35a6.78,6.78,0,0,0,1.69-.67,4.59,4.59,0,0,1,3.52-.66c1.08.32,2.66-.61,4.5-1.67.48-.28,1-.56,1.48-.84a29.12,29.12,0,0,0,6.79-5.19,3.38,3.38,0,0,1,2.75-1.3c1.25.17,1.92,1.36,2.58,2.52a12,12,0,0,0,.74,1.2c.63.85,1.88,1.08,3.21,1.32a9.37,9.37,0,0,1,2.67.76,2,2,0,0,1,1.1,1.87c0,1.59-1.72,3.45-3.2,4.13a9.24,9.24,0,0,0,1.34,2.23,13.47,13.47,0,0,1,1.62,2.65c.69,1.76,4.55,4.64,6.72,4.64a4.14,4.14,0,0,0,3.28-1.82c.18-.2.35-.39.53-.57s.36-.39.57-.62c1.09-1.22,2.58-2.89,4.22-2.19,1.28.54,2.53,1,3.62.4s2.42.15,3.68,1a9.28,9.28,0,0,0,3,1.55,27.67,27.67,0,0,0,11-.46c2.65-.62,5-3.14,6.87-5.17a26.71,26.71,0,0,1,2-2.05,10.34,10.34,0,0,0,2.14-2.77A7.8,7.8,0,0,1,565,145a3.07,3.07,0,0,1,.78-.41c.12-.38.24-.74.36-1.08.77-2.26,1.28-3.76.29-6.25-1.29-3.22-.51-5.53,2.32-6.86,0,0,.09,0,.1-.08.13-.36-.43-1.49-.79-2.24a8.37,8.37,0,0,1-1.12-3.4c0-2.47.2-4.56,2.7-7.06a4.77,4.77,0,0,0,1.1-3.77,5.66,5.66,0,0,0-1.1-3.08c-1.41-1.41-1.28-3.36.33-5a1.48,1.48,0,0,0,.35-1.11,1.16,1.16,0,0,0-.15-.56h0a5,5,0,0,0-1.11,1.37c-.8,1.22-2,3.07-3.83,2.13a3.15,3.15,0,0,1-1.62-2.4c-.19-.8-.26-1-.9-1.14-.35-.07-.71-.13-1.06-.18-1.91-.3-4.29-.68-4.29-3.54a12.19,12.19,0,0,0-.24-2.08c-.28-1.65-.58-3.35,1-5a11.18,11.18,0,0,1,2.23-1.61c1.48-.89,2.65-1.6,2.65-3.48,0-2.43-1.17-4.63-2.11-6.39-.31-.58-.6-1.12-.82-1.63a2.58,2.58,0,0,1,.64-3.31,2.18,2.18,0,0,1,2.83.37,2,2,0,0,0,1.72.67c.38-.16.42-.89.42-1.19a8.3,8.3,0,0,0-.81-3c-.6-1.48-1.22-3-.28-4.45a14.29,14.29,0,0,1,.86-1.17c.88-1.1,1.57-2,1.57-5.06,0-4.32-.74-7.64-2-8.88-.31-.31-.67-.62-1.05-.94-1.38-1.18-3.09-2.64-3.09-5.11,0-3,2.57-7.94,4.7-10.07a10.57,10.57,0,0,1,4.23-2.42,17.45,17.45,0,0,0,3.07-1.39c2.55-1.53,3.5-2.85,3.5-4.86,0-3.21,2.73-4.07,4-4.48.36-.11.4-.29.42-.37a3.85,3.85,0,0,0-1.43-2.81A12.78,12.78,0,0,0,576.73,20c-2-1.07-4-2.17-4.54-4a4.2,4.2,0,0,1,1.09-4.14,5.64,5.64,0,0,0,.93-1.51,27.85,27.85,0,0,0,1.29-5.85,25.2,25.2,0,0,1,.57-3.52A6.13,6.13,0,0,1,577.79,1a28.94,28.94,0,0,0-.62,3.61A28.5,28.5,0,0,1,575.79,11a7.12,7.12,0,0,1-1.18,2c-.76,1-1.14,1.55-.81,2.64s2.15,2.12,3.74,3a13.72,13.72,0,0,1,3.08,2c1.15,1.15,2.24,2.9,1.88,4.39a2.18,2.18,0,0,1-1.55,1.57c-1.86.58-2.87,1.21-2.87,2.88,0,2.63-1.25,4.45-4.31,6.29a19.08,19.08,0,0,1-3.35,1.52,9.12,9.12,0,0,0-3.63,2c-1.86,1.86-4.21,6.41-4.21,8.88,0,1.69,1.22,2.74,2.51,3.84.39.33.79.68,1.15,1,2.15,2.15,2.47,7.23,2.47,10.07,0,3.68-.94,4.86-1.93,6.1-.25.32-.52.65-.77,1-.44.68-.12,1.55.43,2.91a9.71,9.71,0,0,1,.93,3.66c0,1.86-.91,2.51-1.45,2.74a3.49,3.49,0,0,1-3.54-1c-.24-.24-.51-.31-.7-.18s-.35.61-.06,1.25c.2.45.48,1,.77,1.52,1,1.93,2.31,4.34,2.31,7.18s-1.84,3.94-3.46,4.91a9.79,9.79,0,0,0-1.91,1.36c-1,1-.86,1.86-.57,3.5a13.71,13.71,0,0,1,.26,2.37c0,1.31.75,1.55,2.88,1.89.37.06.75.12,1.13.19a2.66,2.66,0,0,1,2.2,2.4c.16.68.26,1,.75,1.29s.86-.34,1.67-1.56a5.32,5.32,0,0,1,1.76-2,1.61,1.61,0,0,1,2.11.51,3.21,3.21,0,0,1-.36,3.84c-.67.67-1.27,1.67-.33,2.61a7.17,7.17,0,0,1,1.58,4.11,6.25,6.25,0,0,1-1.58,5.1c-2.06,2.06-2.21,3.59-2.21,5.87a7.56,7.56,0,0,0,1,2.66c.63,1.29,1.23,2.51.87,3.52a1.8,1.8,0,0,1-1,1c-1.4.66-2.67,1.74-1.47,4.73s.57,5-.26,7.41l-.22.65c.2.08.4.18.59.28a5.48,5.48,0,0,0,2.26.7c1.31.1,2-.65,2.77-1.52a5.17,5.17,0,0,1,1.88-1.52c1.44-.56,2.62.41,3.86,1.44a13.41,13.41,0,0,0,2.31,1.65c1.57.82,3.25.83,5.39.85,1,0,1.94,0,3,.1a16.25,16.25,0,0,1,4.51,1,24.63,24.63,0,0,0,3.85,1c2.85.51,3,.18,3.86-1.23.16-.28.34-.59.56-.93l.35-.55c1.15-1.82,1.91-3,4.68-3.25,2.07-.17,3.32,1.43,4.43,2.84a9.11,9.11,0,0,0,1.84,2c.66.44,1.21,0,2.52-1.66A10.29,10.29,0,0,1,618,144c.41-.3.83-.66,1.27-1,1.36-1.18,2.91-2.52,4.73-2.18a2.83,2.83,0,0,1,1.94,1.48,8,8,0,0,1,0,6.35c-.6,1.6.55,2.59,2.36,3.91a12.37,12.37,0,0,1,1.43,1.15,12.8,12.8,0,0,1,2.14,2.76c.93,1.73.5,2.72,0,3.24a.28.28,0,0,0-.11.24c0,.25.29,1,2.4,2.58l.52.39c2.19,1.63,5.19,3.86,5.89,6.37.57,2.07-1.18,2.85-2.23,3.32-.29.13-1,.47-1,.62a.31.31,0,0,0,0,0,6.79,6.79,0,0,0,2.52,0c.54,0,1.11-.1,1.61-.1a6.9,6.9,0,0,1,2.42.44,5,5,0,0,0,1.77.34c1,0,3.15-1.56,4.74-2.69.9-.64,1.75-1.24,2.44-1.64,2.2-1.26,4.14-.75,6.21.14a5.69,5.69,0,0,1,1.39-1.07c1.3-.75,2.7-1.77,4.06-2.75,2.52-1.83,4.7-3.41,6.29-3.41a7.54,7.54,0,0,1,2.05.3,2.27,2.27,0,0,0,2-.16c.46-.23.49-.83.5-1.72,0-.73,0-1.49.63-1.9a1.51,1.51,0,0,1,1.48,0,1.34,1.34,0,0,0,1.21.06.65.65,0,0,0,.26-.57,1.4,1.4,0,0,1,.52-1.2,2.09,2.09,0,0,1,1.93,0,8.46,8.46,0,0,0,.87.24c0-.12,0-.28.06-.39.12-.8.33-2.3,2-2.52a6.13,6.13,0,0,1,2.91.3,9.31,9.31,0,0,0,2,.42c.22,0,4.25.37,6.35-1.25a2,2,0,0,0,2.45-.42c-1.47,3.1-6.11,3.59-9,3.33a11,11,0,0,1-2.31-.48,4.56,4.56,0,0,0-2.21-.25c-.34,0-.45.18-.58,1.1a2.23,2.23,0,0,1-.7,1.6,1.41,1.41,0,0,1-1.08.24,8.51,8.51,0,0,1-1.32-.34l-.29-.09a2.26,2.26,0,0,1-1,1.65,2.84,2.84,0,0,1-2.56.17c0,.1,0,.2,0,.28,0,.94,0,2.51-1.42,3.21a3.89,3.89,0,0,1-3.18.28,5.93,5.93,0,0,0-1.63-.25c-1,0-3.31,1.64-5.31,3.09-1.39,1-2.83,2.05-4.2,2.85-1.6.93-1.43,1.32-.78,2.76a8.39,8.39,0,0,1,.94,3.62,6.11,6.11,0,0,1-2.37,5,3.63,3.63,0,0,0-.92,1.05,4.59,4.59,0,0,0,.45,4,4.14,4.14,0,0,0,3.21,2c2.26.2,4.3,1.51,6.11,2.67,1.58,1,3.08,2,4.36,2a3.36,3.36,0,0,1,2.54.89c1,1,.92,2.51.88,4.12,0,.34,0,.7,0,1.05,0,2.31,2.39,4.7,4.5,6.81,1,1,2,.55,4-.61a12,12,0,0,1,2.21-1.11,2,2,0,0,1,1.71.14c1.07.65,1.3,2.24,1.56,3.92a12.47,12.47,0,0,0,.44,2.15l.08.23c.62,1.69,1.26,3.44.48,4.54a1.82,1.82,0,0,1-1,.7l.08.07c.92.91,2.18,2.15,2.3,3.59a2,2,0,0,1-.54,1.63c-.91.9-2.59.75-4.53.56-.75-.07-1.53-.14-2.22-.14a.58.58,0,0,0-.27,0c-.22.35.37,2.15.69,3.12a15.26,15.26,0,0,1,1,4.36c0,3.26-2.28,5.51-4.91,8.11l-.84.83c-2.47,2.47-6.08.66-9-.79a14.52,14.52,0,0,0-3-1.26.23.23,0,0,0-.26.08c-1,1-.73,6.3.14,10.25a25.94,25.94,0,0,1,5.65.58c.58.13,1,.22,1.44.3,2.11.42,2.49.57,5.45,3.2a57.15,57.15,0,0,0,9.61,6.67l1.06.63c4.12,2.47,13.34,4.36,15.82,4.36a12.85,12.85,0,0,0,6.14-1.66c2.53-1.27,6.45-1,8.25,1.52.93,1.27.55,2.67.21,3.91-.41,1.51-.58,2.34.48,3.1a24.46,24.46,0,0,0,4,2.16,15.56,15.56,0,0,1,5.05,3.11c1.27,1.39.85,3,.54,4.12-.35,1.32-.28,1.49.19,1.73l1.08.51c2.19,1,4.92,2.27,5.68,5.39a12.24,12.24,0,0,1,.17,3.66c-.05.92-.12,2,.17,2.25a1.19,1.19,0,0,0,.77.17c1.91-.06,2.84-2,3.74-3.79a17.22,17.22,0,0,1,.83-1.56c.16-.26.32-.54.5-.85.73-1.3,1.57-2.76,3.06-3.17a3.66,3.66,0,0,1,2.82.53,24.3,24.3,0,0,1,3,2.21c1.24,1,2.64,2.15,3.07,1.72,1.33-1.33,3.11-7.31,2.17-9.26a19.92,19.92,0,0,0-1.09-1.84c-1.2-1.89-2.34-3.68-1.64-5a2.47,2.47,0,0,1,2.27-1.14,7.88,7.88,0,0,1,4.66,1.3c1.05.6,1.35.71,1.84.39l.63-.42c1.73-1.17,3.88-2.62,6.59-1a2.78,2.78,0,0,0,2.82.4c.58-.42.73-1.48.41-2.91-.47-2.07,2-3.18,4.22-4.16a11,11,0,0,0,3-1.66,23.56,23.56,0,0,1,3-2.63,10.79,10.79,0,0,0,2-1.8c.31-.37.27-.6-.29-1.59s-1.39-2.45-.26-4.25a23.87,23.87,0,0,1,3.83-4.53c.43-.42.84-.82,1.23-1.24.22-.24.47-.52.73-.81,1.55-1.74,3.89-4.38,7.44-5.36a11,11,0,0,1,10.33,2.54c1.89,1.8,7.54,4.16,9.8,4.35a12.39,12.39,0,0,0,1.59,0c1.52-.07,3.24-.15,3.83,2.5.55,2.46,1.82,3.75,3.79,3.82.63,0,1.33,0,2.07,0a21.49,21.49,0,0,1,2.87,0c0-.62,0-1.27,0-1.94.11-2.68.22-5.45-2-7.67-1.92-1.92-4.87-4.57-7.48-6.91-2.1-1.89-3.91-3.51-4.87-4.47a14.81,14.81,0,0,1-4.61-8.22,13.57,13.57,0,0,0-1.35-3.62,7.27,7.27,0,0,1-1.1-4.23,5.62,5.62,0,0,1,1.67-3.42,11.39,11.39,0,0,0,1.68-2.37c1.12-2.13.15-4.87-.42-6.5-.11-.3-.2-.57-.27-.8a4.82,4.82,0,0,1,.9-4.69,2.47,2.47,0,0,0,.62-1.29c0-.36-.67-1-1.2-1.51-1.16-1.12-2.75-2.65-1.72-4.7a7.2,7.2,0,0,1,2.71-2.72c1-.69,1.58-1.09,1.58-1.87s-.73-1.5-1.32-2-1.05-1-.89-1.65a1.37,1.37,0,0,1,1.07-.91,1.37,1.37,0,0,0,.89-.54c.29-.54-.12-1.71-.55-2.95a21.93,21.93,0,0,1-.8-2.66,1.94,1.94,0,0,0,.57.26,3.47,3.47,0,0,0,1.21,0c.17.63.38,1.24.59,1.84.58,1.66,1.08,3.09.45,4.28a2.61,2.61,0,0,1-1.34,1.16,4.46,4.46,0,0,1,1.77,3.19c0,1.71-1.23,2.53-2.32,3.26a5.68,5.68,0,0,0-2.15,2.08c-.43.86.12,1.53,1.39,2.75.84.81,1.72,1.65,1.72,2.72a3.89,3.89,0,0,1-.92,2.25,3.2,3.2,0,0,0-.67,3.25c.06.19.15.44.25.73.62,1.77,1.79,5.06.33,7.84a13,13,0,0,1-1.9,2.69,4,4,0,0,0-1.27,2.52,5.84,5.84,0,0,0,.93,3.3,15.15,15.15,0,0,1,1.49,4,13.29,13.29,0,0,0,4.15,7.35c.93.93,2.73,2.54,4.81,4.41,2.62,2.36,5.6,5,7.55,7,2.74,2.74,2.6,6.16,2.49,8.92a22,22,0,0,0,0,2.25,3.09,3.09,0,0,1,1.3,1,2.57,2.57,0,0,1,.41,2.46c-.16.67-.28,1.15,1,2.3,2.29,2.12,2.12,4.28,2,6.18a13,13,0,0,0-.05,2,12.83,12.83,0,0,1-.34,3.49,8.81,8.81,0,0,0-.17,4c.14.57.26,1.14.38,1.69.45,2.1.87,4.08,2.33,5.62,2.08,2.18,2.75,3.26,2.86,5.8,0,.61.25.78,1.62,1.16a7.73,7.73,0,0,1,2.94,1.34c1.88,1.53,3.93,3.32,4.29,5.37.24,1.33-1.06,2.4-2.21,3.35a7.07,7.07,0,0,0-1.3,1.24c.46,1,2.78,2.54,4.16,2.06a12.69,12.69,0,0,0,1.52-.71c1.24-.64,2.51-1.31,3.6-.88A2.09,2.09,0,0,1,862,302a7,7,0,0,1,.22,2.85c-.11,1.74-.1,2.85,1.29,3.74a16,16,0,0,0,6.36,2.44l.37.08c.48.1.94.16,1.39.21,1.54.19,3.46.42,3.46,3.14,0,.52,0,1.06-.06,1.58-.15,2.58,0,3.46,1,3.63a12.19,12.19,0,0,0,3.52-.35c2.19-.41,4.46-.83,6.09.06,2.82,1.53,3.07,4.4,3.26,6.5.08,1,.08,2.21.08,3.52C889,329.76,889,330.12,889,330.48Zm-217.25,1.88a3.08,3.08,0,0,1-.59.89c-.14.09-.55-.11-.68-.18a11.67,11.67,0,0,1-2.32-1.68c-.91-.8-2.05-1.79-3.25-.59-.63.63-1.47,2.19-1.47,8.49,0,1.88,1.83,2.7,3.45,3.42,1.28.57,2.6,1.17,3.08,2.16a.75.75,0,0,1,.11.51c-.15.34-1.25.69-2,.94a8.68,8.68,0,0,0-3.63,1.8,2.14,2.14,0,0,0-.75,1.86c.19,1.2,1.53,1.89,2.83,2.56a7.87,7.87,0,0,1,1.68,1c1.41,1.41,2.26,2.36,1.88,4-.59,2.52.06,3.18,1.66,4.76l.22.22c.85.85.49,2-.21,3.85a17.69,17.69,0,0,0-.59,1.71c-.8,3-.38,5.62,1.18,7.17a1.46,1.46,0,0,1,.45,1.5,1.74,1.74,0,0,1-.27.52,13.94,13.94,0,0,0,1.93-.25,3.12,3.12,0,0,0-.92-3c-1.59-1.59-1.05-4.42-.74-5.56a16.24,16.24,0,0,1,.54-1.55c.67-1.76,1.51-3.95-.17-5.63l-.22-.22c-1.5-1.49-1.59-1.58-1.21-3.2.62-2.62-.95-4.18-2.32-5.56a8.58,8.58,0,0,0-2.09-1.33c-.66-.34-1.89-1-1.95-1.34,0,0,0-.18.28-.42a7.54,7.54,0,0,1,2.95-1.39c1.35-.43,2.63-.83,3.08-1.87a2.22,2.22,0,0,0-.13-1.89c-.74-1.55-2.42-2.3-3.9-3s-2.46-1.15-2.46-1.89c0-6,.81-7.14,1-7.3l0,0a5.54,5.54,0,0,1,.92.71,13.27,13.27,0,0,0,2.64,1.9c2.16,1.13,3-.4,3.52-1.41a3.64,3.64,0,0,1,2.09-2.1,40.59,40.59,0,0,1,6.4-1.31,2,2,0,0,0,.33-.29,3.37,3.37,0,0,0,.61-1.51,44.85,44.85,0,0,0-7.85,1.52A5.19,5.19,0,0,0,671.71,332.36ZM557.25,266.27a2.11,2.11,0,0,1-1,1.37c-.75.42-2,.39-3.63-.08-2.18-.62-3.27.84-4,1.82s-.92,1.13-1.58.69a2.85,2.85,0,0,0-2.1-.6,2.51,2.51,0,0,0-1.51,1.39c-.39.65-.73,1.22-1.61,1.36-.24,0-.32,0-.35,0-.4-.29-.6-1.62-.76-2.7-.27-1.83-.58-3.9-1.91-5.22-2.42-2.42-4.43-2.4-7.2-2.36h-1.11c-3.11,0-5.19,2.33-6.87,4.21-.39.43-.75.84-1.1,1.19-1.27,1.27-1.24,3-1.22,4.46a5.8,5.8,0,0,1-.43,3c-.42.73-1.25.64-3.51,0a13.84,13.84,0,0,0-3.61-.66,2.63,2.63,0,0,0-2.84,2.28,2.75,2.75,0,0,1-1.85,2.17c-1.41.55-2.11-.44-3.48-3a14.73,14.73,0,0,0-2.35-3.55c-2.1-2.1-3.48-.77-4.49.2a5.67,5.67,0,0,1-2.62,1.68,11,11,0,0,1-2.83.28c-1.3,0-2.64,0-3.17,2.09a17.23,17.23,0,0,0-.37,3c-.09,1.48-.19,3-.82,3.63-.23.23-.49.5-.76.79a20.39,20.39,0,0,1-6.26,4.89c-1.81.85-3.48.23-5.24-.42a8.75,8.75,0,0,0-4.62-.82,16.93,16.93,0,0,0-2.76.8c-1.91.68-3.17,1.13-5-.19-2.54-1.78-5.57-1.59-9.08-1.37-1.32.08-2.68.17-4.16.17-5.29,0-8.17,4.85-9.89,7.74-.23.39-.45.76-.65,1.07a7,7,0,0,0-.73,4.08c.05,1.92,0,3-1.47,3.68s-2,.16-2.85-.66a4.13,4.13,0,0,0-3-1.52,2.88,2.88,0,0,0-3,2.1,5.07,5.07,0,0,1-1.73,2.27c-2.76,2-3.82,2.64-5.79,2s-2.89.62-3.56,1.44-.92,1.09-1.51,1.09a18.59,18.59,0,0,0-2.22.17,14.23,14.23,0,0,1-5.43-.15,3,3,0,0,1-.65-.21,9.94,9.94,0,0,1,1.61-1.33,11.38,11.38,0,0,0,1.31-1c1.4-1.4,2.22-2.65.12-6.06a6,6,0,0,1-1-3.11,4.22,4.22,0,0,0-1.28-3.13,18.61,18.61,0,0,0-1.62-1.39c-1.48-1.18-2.31-1.9-2.13-3.16a3.85,3.85,0,0,0-.79-3.17c-.88-1-2.35-1.53-4.37-1.53-.82,0-1-.3-1.19-2.14a6.42,6.42,0,0,0-1.49-4.06c-.9-.9-.69-1.53-.2-2.66a3.64,3.64,0,0,0,.41-2.48c-.37-1.3-1.75-1.43-2.76-1.53-1.37-.13-1.42-.27-1.42-.58a4.11,4.11,0,0,1,.7-1.94,2.5,2.5,0,0,0,.5-2.12,2,2,0,0,0-1.31-1.06,3.34,3.34,0,0,1-2.07-2,2.23,2.23,0,0,1,.27-2,20.53,20.53,0,0,1,2.3-2.66,28.57,28.57,0,0,0,3.56-4.25,5.81,5.81,0,0,0,.53-1c2.66.53,3.95.41,5.8-.45,1.08-.5,2-1.89,3-3.5a13.1,13.1,0,0,1,3-3.7c1.43-.93,2.9-.71,4.33-.51a12.38,12.38,0,0,0,1.77.17c1.41,0,2.05-1.31,2.57-2.36s.77-1.39,1.06-1.3.4.15.47.81a3.27,3.27,0,0,0,2,3,13,13,0,0,0,3.44,1,6.92,6.92,0,0,1,4,1.65,1.87,1.87,0,0,0,1.95.7c1.18-.42,1.36-2.2,1.6-4.46.09-.83.18-1.69.32-2.4.19-.94.46-1.52.82-1.73s1.25-.09,2.33.25c2.32.73,4.26,1.12,6.46-1.08,1-1,2-.64,4.08,1.46,1.75,1.75,4.37,1.38,6.68-.94.76-.76,1-.68,2-.34a8.63,8.63,0,0,0,3.07.58,2.33,2.33,0,0,0,1.8-.65,3.43,3.43,0,0,0,.51-2.72c-.08-1.18-.17-2.41.74-3.31a27.16,27.16,0,0,0,3.06-3.83,26.84,26.84,0,0,1,3-3.78,10.21,10.21,0,0,0,2.73-3.9,3.62,3.62,0,0,0-1-3.83c-.77-.77-.68-1,.32-2.61a20,20,0,0,0,1.25-2.18c1-2,1.31-4.7,1.69-7.78.2-1.61.4-3.28.72-5.07.57-3.19,1.42-3.34,3.94-3.79a26.35,26.35,0,0,0,3.92-.94c2.59-.86,3.33-.31,4.11.58a9.49,9.49,0,0,1-.33-2.36c-1-.43-2.27-.49-4.3.19a24.59,24.59,0,0,1-3.69.88c-2.73.49-4.53.81-5.3,5.15-.33,1.83-.54,3.6-.74,5.16-.36,2.93-.67,5.47-1.54,7.26a18.3,18.3,0,0,1-1.15,2c-1,1.5-1.86,2.92-.09,4.69a1.94,1.94,0,0,1,.56,2.15A8.86,8.86,0,0,1,467,226.8a28.17,28.17,0,0,0-3.21,4,25.48,25.48,0,0,1-2.87,3.6c-1.44,1.44-1.31,3.27-1.22,4.61,0,.55.09,1.3-.07,1.47a.93.93,0,0,1-.58.12,7,7,0,0,1-2.52-.49,3,3,0,0,0-3.69.73c-1.27,1.27-3.07,2.18-4.32.94s-4-4-6.45-1.46c-1.5,1.5-2.61,1.36-4.78.67-1.27-.4-2.6-.74-3.68-.1a3.92,3.92,0,0,0-1.6,2.84c-.16.78-.25,1.68-.34,2.55a14.74,14.74,0,0,1-.49,2.95l-.21-.19a8.42,8.42,0,0,0-4.87-2.12,11.49,11.49,0,0,1-3-.85A1.66,1.66,0,0,1,422,244.4a2.21,2.21,0,0,0-1.66-2.24c-1.72-.51-2.51,1.11-3,2.17-.33.67-.7,1.42-1.07,1.42a11.21,11.21,0,0,1-1.53-.16,7.34,7.34,0,0,0-5.48.76,13.83,13.83,0,0,0-3.47,4.2c-.77,1.21-1.65,2.58-2.28,2.88-1.43.67-2.32.82-4.75.33,0-2.54-2.14-4.72-3.85-6.43l-7-7a2.62,2.62,0,0,1-.77-2.82,1.12,1.12,0,0,1,1-.79,2.68,2.68,0,0,0,2.52-1.74,3.18,3.18,0,0,0-.61-3.44c-1.74-1.74-.91-2.56-.56-2.91a2.5,2.5,0,0,0,.42-3.17,13.2,13.2,0,0,0-2.35-2.81c-.89-.89-.66-1.44-.26-2.45a5.25,5.25,0,0,0,.5-2,1.85,1.85,0,0,0-.82-1.58,3.46,3.46,0,0,0-1.89-.49,18.11,18.11,0,0,1-.48-5.92,8.12,8.12,0,0,0,0-2.63,4,4,0,0,1,.25-2.62c.42-.92,3-2.1,5.07-3.06a19.9,19.9,0,0,0,5.24-3l.74-.73c1.81-1.76,3.24-3.15,3-6a17.31,17.31,0,0,0-1.46-4.93c-.36-.89-.74-1.8-1-2.79s-.05-1.13,1-1.78a5.66,5.66,0,0,0,2.35-2.35c1-2-.23-2.8-1-3.32a2.74,2.74,0,0,1-1.39-1.64,5.26,5.26,0,0,1,.17-2.6,6.84,6.84,0,0,0-.83-6,29.74,29.74,0,0,0-2.11-2.76c-1.17-1.4-1.76-2.1-1.76-3.88,0-4-3-4-5.48-4-1.95,0-2.86-.37-3.06-.69s0-.6.16-.82a3.47,3.47,0,0,1,1.87-1.4c.64-.28,1.29-.57,1.42-1.26a1.52,1.52,0,0,0-.53-1.32,3.05,3.05,0,0,1-1.14-2c0-.08,0-.33.51-.59a3.14,3.14,0,0,0,1.74-2.32,3.9,3.9,0,0,0-1.43-3.28c-.45-.45-.45-.62-.45-.62,0-.21.68-.78,1.17-1.2s1-.87,1.6-1.46c2.38-2.38,3.57-6.15,3.88-8.87a2,2,0,0,0-.4-1.64,2.87,2.87,0,0,0-2.27-.64,4.15,4.15,0,0,1-2.42-.51c-.71-.5-.51-1.38.13-3.27a11.34,11.34,0,0,0,.78-3.51c0-2.54-2.64-4.71-4.57-6.3-.55-.45-1.07-.88-1.41-1.22a.45.45,0,0,1-.1-.12c0-.4,1.52-1.4,2.17-1.82a13.61,13.61,0,0,0,2-1.52c2-2,.93-6-1.11-8.66-1.64-2.16-3.14-2-4.72-1.89a10.49,10.49,0,0,1-2.31,0c-1-.12-1.12-.47-1-2.68A12.22,12.22,0,0,0,377.6,93c-.32-1.35.18-1.57,1.39-2.11a4.83,4.83,0,0,0,2.28-1.65c.25-.39.57-.8.92-1.25,1.24-1.6,2.78-3.59,1.66-5.55-.25-.44-.49-.84-.72-1.23-.33-.56-.63-1.06-.9-1.56a3.3,3.3,0,0,1-1.46.81c.28.53.59,1.05.93,1.61.23.38.47.78.71,1.2.52.92-.3,2.11-1.53,3.69-.35.45-.71.91-1,1.36a3.48,3.48,0,0,1-1.56,1c-1.18.53-3,1.33-2.33,4a10.92,10.92,0,0,1,.12,3.16c-.11,1.83-.25,4.11,2.46,4.44a12,12,0,0,0,2.66,0c1.44-.13,2.16-.19,3.24,1.24,1.81,2.38,2.38,5.34,1.26,6.46a12.64,12.64,0,0,1-1.77,1.3c-1.43.95-2.79,1.84-2.91,3a1.78,1.78,0,0,0,.58,1.47c.4.4.92.83,1.53,1.33,1.67,1.37,4,3.25,4,5a10,10,0,0,1-.69,3c-.62,1.84-1.32,3.92.5,5.18a5.68,5.68,0,0,0,3.36.8,4.19,4.19,0,0,1,1,.08,1.06,1.06,0,0,1,0,.34,14,14,0,0,1-3.4,7.88c-.55.55-1.06,1-1.51,1.37-1,.85-1.71,1.47-1.75,2.4a2.64,2.64,0,0,0,.94,1.87,2.5,2.5,0,0,1,1,1.88,1.65,1.65,0,0,1-.91,1.09,2.45,2.45,0,0,0-1.34,1.82,4.23,4.23,0,0,0,1.41,3.21l-.18.08a5,5,0,0,0-2.68,2.16,2.39,2.39,0,0,0-.1,2.46c.61,1,2.08,1.5,4.49,1.5,2.88,0,3.81.18,3.81,2.35,0,2.39.9,3.47,2.15,5a28,28,0,0,1,2,2.61c1.24,1.86.94,3.18.59,4.72a6.7,6.7,0,0,0-.15,3.42,4.37,4.37,0,0,0,2.08,2.59c.75.49.76.5.43,1.2a4.1,4.1,0,0,1-1.73,1.67c-1,.63-2.34,1.48-1.68,3.67a31.27,31.27,0,0,0,1.09,2.94,15.79,15.79,0,0,1,1.34,4.46c.2,2-.75,2.92-2.46,4.59l-.76.75a19.71,19.71,0,0,1-4.75,2.65c-2.8,1.29-5.21,2.39-5.89,3.88a5.6,5.6,0,0,0-.39,3.55,6.53,6.53,0,0,1,.05,2.13,18.84,18.84,0,0,0,.46,6.33,20.94,20.94,0,0,0-3.9,1.14c-.93.37-1.76.71-2.5,1a25.74,25.74,0,0,1-6.11,2c-3.43.55-7.92.49-8.87-.47a7.83,7.83,0,0,1-1.67-7.58c.78-2.42-.17-5.48-1.09-8.45a19.08,19.08,0,0,1-1.1-4.8,2.48,2.48,0,0,0-1.4-2.59c-1.9-.79-4.86,1.21-6.82,3.17-2.71,2.71-5.15,2.92-8.3,2.92-1.5,0-2.92-.12-4.29-.23s-2.77-.23-4.26-.23a4.78,4.78,0,0,0-3.31,1.59c-1,.92-1.57,1.42-3.08.61-3.48-1.86-6.68-1.06-9.77-.29l-.89.22c-2.22.54-5.82.33-9,.14-1.45-.08-2.81-.16-3.92-.16-3.26,0-8.3-3-11.11-5.84s-2.8-4.46-2.8-7.49a10.18,10.18,0,0,0-.4-2.9c-.21-.79-.22-.82.27-1.31a3.68,3.68,0,0,1,1.62-.92,6,6,0,0,0,2.59-1.54c2.12-2.12,2.4-6.81,2-10.17a13.13,13.13,0,0,0-3.87-7.87c-1.17-1.17-2.42-.06-3.17.6a3.48,3.48,0,0,1-2,1.14c-1,0-1.86-1.82-2.7-3.58-.4-.83-.8-1.68-1.27-2.46a5.67,5.67,0,0,0-3.18-2.66,15.09,15.09,0,0,1-3.36-1.92c-1.34-1-2.05-1.95-2.12-2.83s.42-1.72,1.51-2.81c1.31-1.31,3-4.07-.7-7.74-1.68-1.68-1.5-2.33-1-4.05.07-.24.13-.5.2-.77a6.44,6.44,0,0,0,0-2.75,4.6,4.6,0,0,1,.6-3.59,19.18,19.18,0,0,1,1.46-2.12c1.12-1.48,2.1-2.75,1.31-5.22-.24-.75-.48-1.33-.69-1.84-.61-1.47-.84-2,.07-4s.38-3.86-.21-5.82a16.13,16.13,0,0,1-.88-4.83c0-4.39.64-4.72,3.35-5.39,2.42-.6,3.19-2.71,3.87-4.58a7.7,7.7,0,0,1,1.43-2.78l.21-.21c2.08-2.08,4.94-4.93,4-7.68-.78-2.22-.33-5.2,1-6.51a10.2,10.2,0,0,1,2.77-1.47c2.13-.9,4.54-1.92,3.87-3.95a7,7,0,0,0-1.62-2.42c-1.05-1.16-1-1.25-.69-1.52,1.1-1.1,3.32-2.14,6.18-3.34a5.74,5.74,0,0,1,.67-2.09c-3.79,1.54-6.55,2.75-8,4.24s-.21,2.9.63,3.83A5.67,5.67,0,0,1,294.14,77c.19.56-1.76,1.39-2.93,1.88a10.78,10.78,0,0,0-3.31,1.83c-2,2-2.24,5.74-1.37,8.24.62,1.76-1.81,4.18-3.57,5.95l-.21.21a9,9,0,0,0-1.82,3.39c-.62,1.69-1.15,3.14-2.71,3.53-3.79.95-4.61,2.19-4.61,7a17.74,17.74,0,0,0,1,5.31c.53,1.79,1,3.21.29,4.64-1.16,2.52-.83,3.56-.1,5.33.2.48.43,1,.64,1.71.53,1.64,0,2.29-1,3.7a20.59,20.59,0,0,0-1.58,2.3,6.19,6.19,0,0,0-.81,4.69,8.09,8.09,0,0,1,.12,1.14c-3.81-1.06-6.7,1.83-8.15,3.28s-2.41,1.7-3.91,1a4.58,4.58,0,0,0-3.55-.18,7.46,7.46,0,0,0-4.11,4,3.51,3.51,0,0,1-2.42,2.15,11.5,11.5,0,0,0-4.5,2.94,39.29,39.29,0,0,0-4.84,6.16,29,29,0,0,1-3.35,4.36,3.19,3.19,0,0,1-3.58,1,5.74,5.74,0,0,0-2.8,0c-1.45.4-2.23,1.81-3,3.18s-1.63,3-3.24,3.47c-.56.17-1,.2-1.15.07-.42-.33-.29-2-.2-3.14.05-.66.11-1.35.11-2,0-2.87-1.7-2.9-2.94-2.93a5.65,5.65,0,0,1-1.63-.19,16.07,16.07,0,0,0-5.57-.2c-1.19.08-2.41.16-3.72.16-2.74,0-4.06,1.39-5.35,2.74a11.61,11.61,0,0,1-2.32,2,5.35,5.35,0,0,1-3.77.63,9.67,9.67,0,0,0-4,.28c-2.86.89-3.33.76-7-.22l-.44-.12a3.68,3.68,0,0,0-2.93.2c-1.29.77-1.68,2.35-2.08,4a13.59,13.59,0,0,1-.82,2.63,8.91,8.91,0,0,0-.77,4.1c-4.1-.81-7-3.68-8.75-6-1.14-1.53-.95-3.65-.79-5.36,0-.54.1-1.06.1-1.51a6.11,6.11,0,0,1,1-2.58,12.64,12.64,0,0,0,1.37-3.27c.22-1,.34-2-.3-2.66s-2-.47-3.55-.11a3.06,3.06,0,0,1-2.85-.42c-.06-.07-.17-.23,0-.57a8.65,8.65,0,0,1,2.51-2,15.12,15.12,0,0,0,4-3.26,2.56,2.56,0,0,0,.61-2c-.21-1.12-1.25-1.78-2.46-2.55a12.87,12.87,0,0,1-2.26-1.68,1.93,1.93,0,0,1-.32-.39,7.08,7.08,0,0,1,1.59-.56,5.21,5.21,0,0,0,2.28-1c1.08-1.08.07-2.4-.74-3.46a7.49,7.49,0,0,1-1.22-2,17.25,17.25,0,0,1,2,.9,17.07,17.07,0,0,0,1.61.75,4.87,4.87,0,0,0,4.16-.43,2,2,0,0,0,.94-1.64,4.59,4.59,0,0,0-.41-1.62c-.44-1.13-.39-1.3,0-1.54s1.34.15,2,.47,1.34.67,1.93.3A1.16,1.16,0,0,0,183,132a6.33,6.33,0,0,0-.31-1.65c-.31-1.13-.47-1.85.06-2.38a.73.73,0,0,1,.14-.11,3.67,3.67,0,0,1,.66.56,4.4,4.4,0,0,0,2.55,1.46,6.6,6.6,0,0,0,3.63-1.19,8.61,8.61,0,0,1,3.94-1.39c2.6,0,5.09,1.46,8.27,3.82,1.32,1,2.18,1.28,3,1,1-.3,1.35-1.32,1.8-2.61.14-.4.3-.85.49-1.32a27.61,27.61,0,0,0,1.32-5.3,18.63,18.63,0,0,1,.93-3.81c.51-1.1,1.12-1.24,2.84-1.49.44-.06.93-.14,1.46-.24,2.88-.58,2.43-3.26,2.1-5.21-.05-.31-.11-.63-.15-.94l-.11-.73c-.27-1.86-.36-2.64.3-3.3.25-.25,1-.19,1.64-.15,1.06.08,2.52.18,3.06-1.15a7.57,7.57,0,0,0-1.47-7.19,5.69,5.69,0,0,0-3.3-1.86c-1-.25-1.43-.4-1.69-1a.61.61,0,0,1-.07-.38c.13-.3,1-.62,1.59-.85a8.29,8.29,0,0,0,1.85-.87c3.38-2.38,2.42-4.85,1.55-6.11-1.58-2.29-4.84-4.93-7.49-7-1.82-1.4-2.63-3.25-2.63-6a2.82,2.82,0,0,0-.95-2.31c-1.15-.94-3-.66-4.58-.33-.46.09-1,.24-1.59.4-1.74.47-4.66,1.26-5.55.37s-.14-5.6.16-7.63a22.88,22.88,0,0,0,.3-2.59,5,5,0,0,1,1.37-2.63A14.84,14.84,0,0,0,199.39,58c1.22-2.23-1.09-4.53-3.12-6.55l-.3-.3c-1.48-1.48-.57-4.66.55-6.44A18.22,18.22,0,0,1,199.16,42a16.24,16.24,0,0,0,3.42-3.86c.71-1.45.64-4.08.39-6.76a4.89,4.89,0,0,1-1.7-.25c.22,2.19.39,5.07-.19,6.27A15.59,15.59,0,0,1,198,40.74a18.63,18.63,0,0,0-2.92,3.12c-1.37,2.18-2.58,6.24-.31,8.51l.3.3c1.54,1.53,3.45,3.44,2.83,4.57a13.57,13.57,0,0,1-1.14,1.65,6.25,6.25,0,0,0-1.71,3.64c0,.41-.14,1.35-.28,2.35-.61,4.17-1,7.73.31,9.05,1.58,1.58,4.68.74,7.17.07.56-.15,1.08-.29,1.49-.38.83-.17,2.55-.52,3.18,0,.08.07.33.27.33,1A8.62,8.62,0,0,0,210.57,82c2.36,1.81,5.67,4.47,7.14,6.59.65.94,1.1,2.21-1.14,3.79a7.18,7.18,0,0,1-1.47.68c-1.05.4-2.14.81-2.54,1.76a2.1,2.1,0,0,0,.07,1.7,3.56,3.56,0,0,0,2.8,2,4.12,4.12,0,0,1,2.43,1.31,6,6,0,0,1,1.22,5.5c-.08.21-.84.15-1.39.11a3.61,3.61,0,0,0-2.94.63c-1.28,1.28-1.06,2.8-.77,4.72l.1.72c0,.33.1.66.16,1,.4,2.39.35,3.07-.78,3.3-.49.1-.94.16-1.37.23-1.65.24-3.21.47-4.12,2.45a19.4,19.4,0,0,0-1.05,4.21,26,26,0,0,1-1.22,5c-.21.5-.37,1-.52,1.39a5,5,0,0,1-.72,1.57s-.32.06-1.47-.79c-2.71-2-5.88-4.14-9.26-4.14a10,10,0,0,0-4.74,1.59,5.69,5.69,0,0,1-2.65,1,3,3,0,0,1-1.57-1c-.64-.61-1.82-1.75-3.14-.43s-.82,2.85-.49,4l.11.41c-.93-.46-2.28-1.09-3.49-.36-1.69,1-1.07,2.61-.7,3.57a3.57,3.57,0,0,1,.3,1c0,.08-.12.19-.22.27a3.27,3.27,0,0,1-2.63.24c-.37-.13-.88-.39-1.43-.67-1.67-.84-3.11-1.56-4-.89a1.43,1.43,0,0,0-.47,1.53,7.32,7.32,0,0,0,1.61,2.94,6,6,0,0,1,.85,1.29,6.45,6.45,0,0,1-1.5.52c-1.24.34-2.53.69-2.81,1.75a2.2,2.2,0,0,0,.8,2,14.18,14.18,0,0,0,2.55,1.91c.81.51,1.64,1,1.71,1.43a1.21,1.21,0,0,1-.31.73,13.94,13.94,0,0,1-3.55,2.86l-.53.34c-2.48-1.93-6.09-1.47-8.1-1.21h0a4.52,4.52,0,0,1-2.41-.69,5.38,5.38,0,0,0-2.92-.78,6.3,6.3,0,0,0-1.65.49,3.41,3.41,0,0,1-3.89-.34,7.8,7.8,0,0,1-2.66-3.35,11.71,11.71,0,0,0-2.19-3.24c-1.91-1.91-3.18-.7-3.94,0a2.65,2.65,0,0,1-1.87,1,.93.93,0,0,1-.83-.33c-.46-.61-.41-2.12.11-4a5.75,5.75,0,0,1,1-1.68,4.83,4.83,0,0,0,1.33-3.7c-.33-2.14-1.91-1.91-2.86-1.78a5.44,5.44,0,0,1-1.66.06c-.43-.07-.57-.38-.8-1.73a5.57,5.57,0,0,0-1.29-3.19c-1.5-1.5-2.8-.26-3.57.48a4.8,4.8,0,0,1-2,1.34c-1.24.33-2.17-.92-3.45-2.85-.31-.47-.63-1-1-1.37a4.15,4.15,0,0,0-3.84-1.79,11,11,0,0,1,.16,1.67,2.45,2.45,0,0,1,2.35,1.14c.29.38.58.81.89,1.28,1.24,1.87,2.78,4.2,5.27,3.54a6.28,6.28,0,0,0,2.73-1.75c.9-.85.92-.83,1.24-.51a4.21,4.21,0,0,1,.82,2.28c.21,1.27.47,2.84,2.19,3.11a7,7,0,0,0,2.16-.06,3.26,3.26,0,0,1,.84-.06,1.1,1.1,0,0,1,.13.44,3.41,3.41,0,0,1-1,2.45,7.05,7.05,0,0,0-1.25,2.22c-.49,1.72-.86,4.06.16,5.42a2.57,2.57,0,0,0,2.17,1,4.22,4.22,0,0,0,3-1.46,2.44,2.44,0,0,1,.77-.59c.16,0,.47.17.84.53a10,10,0,0,1,1.89,2.81,9.4,9.4,0,0,0,3.2,4,5,5,0,0,0,5.47.52,5,5,0,0,1,1.22-.38,4.2,4.2,0,0,1,2,.62,5.9,5.9,0,0,0,3.35.84h0c1.63-.21,4.48-.58,6.43.58a4.33,4.33,0,0,0-1.11,1.25,2.13,2.13,0,0,0,.13,2.38c.82,1.08,2.61,1.48,4.56,1a9.14,9.14,0,0,1,2-.32,3.58,3.58,0,0,1-.13,1.1,11.17,11.17,0,0,1-1.21,2.83,7.29,7.29,0,0,0-1.18,3.37c0,.38,0,.85-.09,1.36-.17,1.88-.41,4.47,1.12,6.51,2,2.67,5.34,5.94,10.17,6.74l0,.41a26.75,26.75,0,0,1,0,4.68c-.31,3.11-3,4-5.82,5-.62.22-1.26.44-1.86.69a15.88,15.88,0,0,1-3.33.94,21.09,21.09,0,0,0-5.68,1.85c-3.26,1.55-2.67,3.41-2.2,4.9a3.86,3.86,0,0,1,.13,2.94c-.61,1.4-.93,1.42-1.57,1.47a3.84,3.84,0,0,0-2.79,1.26c-2.21,2.21-5.49,5.12-8.6,6.47l-1.07.46c-2.73,1.15-4.7,2-5.17,4.59,0,.26-.08.53-.11.8-7.26-2.76-10.83-3.54-13.44-3-3.13.69-3.12,3.12-3.12,5.69v.37c0,1-.27,1.09-.86,1.34a2.09,2.09,0,0,0-1.53,2.07,3.47,3.47,0,0,0,1.28,2.39c.81.83,1.3,1.33.59,2.64a13.3,13.3,0,0,1-1.75,2.44,6,6,0,0,0-1.89,4.4c0,2.4,1.45,2.83,2.62,3.18a4.89,4.89,0,0,1,2.3,1.2c.25.25.52.61.38.87-.33.64-2.18,1.27-4.44.87a9.48,9.48,0,0,0-5.92.75,23.68,23.68,0,0,1-2.28.79,2.55,2.55,0,0,1-2.61-.45,5.48,5.48,0,0,0-3.35-1.1,2.7,2.7,0,0,0-2.93,2.33c-.22.77-.27,1-1,1a2.8,2.8,0,0,1-1.79-.59c-1-.65-1.9-1.05-4,.05-1.63.85-3.54.26-5.56-.36a14.87,14.87,0,0,0-4.28-.87c-3.06,0-3.54,2.62-4,4.92a16.51,16.51,0,0,1-.73,2.94,7,7,0,0,1-2.54,3.24,13.21,13.21,0,0,0-2.69,2.77c-1.93,2.74-1.38,4.48-.74,6.48.13.41.27.83.39,1.29.6,2.2-.26,4.09-1.45,6.71l-.14.31a4,4,0,0,0-1.8.32,4.56,4.56,0,0,1-2.5.32,8.39,8.39,0,0,1-3.66-1.9c-1.51-1.12-3.06-2.28-5.3-2.28-3.2,0-5.21-1.58-6.14-4.82-.7-2.44-1.47-3.71-2.58-4.24a3.67,3.67,0,0,0-3.09.17c-1.1.46-2.06-.63-3.53-2.48a22,22,0,0,0-1.62-1.89c-.89-.89-.93-2-1-3.49a18.78,18.78,0,0,0-.16-2.19c-.16.3-.93-.06-1.85-.71a12.37,12.37,0,0,1,.34,3c.05,1.6.11,3.25,1.47,4.61a20.78,20.78,0,0,1,1.49,1.75c1.47,1.86,3.14,4,5.49,3,1-.43,1.47-.32,1.72-.2.62.3,1.16,1.31,1.7,3.19,1.13,3.95,3.81,6,7.75,6,1.69,0,3,.94,4.31,1.95a9.78,9.78,0,0,0,4.41,2.21,6.2,6.2,0,0,0,3.31-.4c1-.35,1.37-.49,2.78.92a13.65,13.65,0,0,1,2.38,3.53c.95,1.82,1.84,3.53,4.15,3.53,1.88,0,2.34.94,3.1,2.5.22.45.44.91.72,1.38a16.11,16.11,0,0,1,1,2.25c.83,2.17,1.85,4.87,4.24,5.81,3.67,1.44,6.79,1.37,8.35-.19a2.87,2.87,0,0,1,2.67-.83c.14.06.57.24.57,1.21a14.13,14.13,0,0,1-.9,3.43c-.89,2.64-1.91,5.64-.79,7.52a3.28,3.28,0,0,0,2.38,1.52,10.38,10.38,0,0,0,5.37-.52c1.53-.49,2-.63,2.78.64,1.61,2.61,4.62,5.4,6.81,7.44.66.61,1.22,1.13,1.64,1.55.83.83.62,2.08.21,4.06a16.11,16.11,0,0,0-.45,3.31c0,2.19,1.34,3.25,2.52,4.18a5.31,5.31,0,0,1,1.72,1.84c1,2.36.79,4.13-.84,5.76a26.93,26.93,0,0,0-3.55,4.21,3.5,3.5,0,0,1,1.59.63A26.71,26.71,0,0,1,127,334c2.13-2.13,2.52-4.62,1.18-7.62a6.74,6.74,0,0,0-2.21-2.47c-1.17-.92-1.88-1.55-1.88-2.87a14.86,14.86,0,0,1,.42-3c.42-2,.85-4.07-.66-5.58-.44-.44-1-1-1.69-1.6-2.13-2-5-4.68-6.53-7.09s-3.12-1.87-4.71-1.36a8.69,8.69,0,0,1-4.57.47,1.67,1.67,0,0,1-1.24-.72c-.73-1.23.2-4,.93-6.14a14.37,14.37,0,0,0,1-4,2.7,2.7,0,0,0-1.61-2.75,4.47,4.47,0,0,0-4.49,1.19c-1,1-3.61,1-6.55-.19-1.69-.66-2.54-2.88-3.28-4.84a17.12,17.12,0,0,0-1.1-2.51c-.25-.42-.46-.85-.66-1.27-.83-1.69-1.68-3.44-4.6-3.44-1.24,0-1.74-.85-2.67-2.63a15.22,15.22,0,0,0-2.68-3.94,8.4,8.4,0,0,0-1.18-1l.11-.25c1.23-2.71,2.3-5.06,1.54-7.84-.14-.5-.28-.93-.41-1.36-.61-1.9-.94-2.95.51-5a11.64,11.64,0,0,1,2.38-2.44,8.63,8.63,0,0,0,3-3.93,18,18,0,0,0,.81-3.23c.47-2.58.8-3.55,2.32-3.55a13.46,13.46,0,0,1,3.79.8c2.26.69,4.59,1.41,6.82.25,1.42-.74,1.71-.55,2.34-.14a4.44,4.44,0,0,0,2.71.86,2.47,2.47,0,0,0,2.6-2.17c.23-.81.32-1.11,1.32-1.11a3.84,3.84,0,0,1,2.43.82,4.16,4.16,0,0,0,4,.66,25.38,25.38,0,0,0,2.43-.84,7.92,7.92,0,0,1,5-.66c2.77.49,5.44-.26,6.22-1.74a2.31,2.31,0,0,0-.68-2.83,6.44,6.44,0,0,0-3-1.62c-1.12-.33-1.42-.42-1.42-1.57a4.39,4.39,0,0,1,1.48-3.31,14.72,14.72,0,0,0,1.95-2.73c1.3-2.4,0-3.73-.86-4.61-.5-.51-.81-.85-.81-1.22s0-.31.52-.53a2.71,2.71,0,0,0,1.88-2.88v-.37c0-2.72.08-3.67,1.81-4.05,2.28-.5,5.84.34,13,3.1a17.15,17.15,0,0,0,1.32,5.64c.34.85.7,1.56,1,2.25a9.58,9.58,0,0,1,1.38,4.74c0,.56,0,1.07,0,1.52a7.43,7.43,0,0,0,1.59,5.73c1.31,1.78.85,2.46-.16,4l-.42.63a5.14,5.14,0,0,0-.82,4.16,4,4,0,0,0,2.28,2.48l1.19.53c.78.34,1.93.85,2.64,1.24a7.12,7.12,0,0,0-3.26,5.39c0,2.73,3.93,3.91,7.36,4.64,2.1.45,2.16,1.17,2.29,2.75a11.24,11.24,0,0,0,.28,2c.46,1.79,1.87,2.31,3.23,2.82a7.53,7.53,0,0,1,2.91,1.65c.84.84.65,1.43.15,2.67a4.69,4.69,0,0,0-.33,3.75,1.58,1.58,0,0,0,1.33,1.16c1.19.1,2.08-1.29,3.44-3.55a14.76,14.76,0,0,1,1.53-2.26,2.11,2.11,0,0,1,2.09-.33,6.55,6.55,0,0,1,2.7,1.65,15.36,15.36,0,0,0,3.8,2.42,13.2,13.2,0,0,1,3.06,1.89c.89.89,1.47,3.82,1.52,7.54l-.11.06c-3.25,1.72-5.6,3-4,7.24,1.33,3.64,1.56,9.3.86,11.73-.45,1.58-1.44,3.37-3.59,3a9.33,9.33,0,0,1-1.43-.43,5.64,5.64,0,0,0-6,.65,42.44,42.44,0,0,1-4.35,2.58,24.49,24.49,0,0,0-5.35,3.47,11.13,11.13,0,0,1-2.2,1.57c-1.48.89-3.16,1.9-3.16,4.13s-1.3,5.28-3.79,6.26c-3.2,1.26-5.73,2.37-6.65,4.15-.13.25-.33.57-.56.94-1.11,1.78-3,4.75-1.67,7.85a33.51,33.51,0,0,1,1.71,5.52c.19.79.37,1.54.59,2.24.38,1.21-.17,2.53-.8,4.07-.24.59-.49,1.21-.71,1.86a46.25,46.25,0,0,1-3.37,6.1l0,.07a6.48,6.48,0,0,0,1.38,1l.1-.16a45.15,45.15,0,0,0,3.53-6.44c.2-.6.44-1.19.67-1.75.72-1.76,1.4-3.42.85-5.2-.2-.64-.37-1.36-.56-2.13a34.9,34.9,0,0,0-1.8-5.78c-1-2.29.49-4.62,1.54-6.31.25-.4.47-.75.63-1.06.71-1.37,3.52-2.48,5.78-3.36,3.19-1.25,4.85-4.88,4.85-7.82,0-1.22.85-1.79,2.35-2.7a12.59,12.59,0,0,0,2.52-1.83,23.63,23.63,0,0,1,5-3.18,43.62,43.62,0,0,0,4.53-2.69c1.91-1.37,3-1,4.49-.44a10.74,10.74,0,0,0,1.69.51c2.57.48,4.62-1.07,5.5-4.15.78-2.73.56-8.77-.9-12.77-1-2.77-.16-3.38,2.77-4.94.6,1.79,2.45,3,4.84,3a8.61,8.61,0,0,0,2.19-.35c1.29-.33,1.4-.31,1.69.39.91,2.15,3.06,3.35,5.33,4.62l.78.44c1.75,1,4.36,1.81,6,.88a2.38,2.38,0,0,0,1.15-2.16c0-.29,0-.66.27-.75a3.07,3.07,0,0,1,2.51,1.12,4.39,4.39,0,0,1,.91,2.29,5.27,5.27,0,0,0,2.1,3.8c2.29,1.49,5.87,2,10.07,1.57,1.33-.15,2.21-.32,2.85-.44a3,3,0,0,1,2.39.16c.44.18.61.64.92,1.58a8.65,8.65,0,0,0,3.34,4.85,3.82,3.82,0,0,0,2,.89,1.3,1.3,0,0,0,.68-.18c.92-.56.74-1.87.54-3.25a10.82,10.82,0,0,1-.15-1.62c.18.11.4.28.56.39.77.56,2.06,1.51,3.08.48s-.06-2.46-1.09-3.87a10.7,10.7,0,0,1-1.29-2.06,13.35,13.35,0,0,1,2,1.94c1.1,1.24,1.7,1.92,2.47,1.78a1,1,0,0,0,.78-.67c.32-.82-.1-1.85-.64-3.16a12.66,12.66,0,0,1-.75-2.2c.21.32.43.69.6,1a13.06,13.06,0,0,0,1.73,2.49,1.39,1.39,0,0,0,1.5.49c.75-.33.72-1.22.68-2.25a5.27,5.27,0,0,1,.11-1.78c.16-.16.24-.13.27-.11.2.08.51.51.51,1.29,0,2.62.29,3.85,3,4.68,2,.59,2.8-1.3,3.36-2.55.34-.76.72-1.62,1.16-1.78s.91.1,1.78.95a6.86,6.86,0,0,0,2,1.52,3.41,3.41,0,0,0,1.36.28c2,0,3.93-1.66,4.76-2.49l.1-.08a3.82,3.82,0,0,1,.92.69,6,6,0,0,0,2.76,1.62,1.89,1.89,0,0,0,1.65-.31,2.85,2.85,0,0,0,.66-2.37,3.23,3.23,0,0,1,.11-1.2c.07-.07.09-.07.11-.07.42,0,1.31.9,1.85,1.44l.18.18a1.76,1.76,0,0,0,1.65.57c.94-.19,1.73-1.17,2.49-3.06a45.86,45.86,0,0,0,1.73-7.81l-1.65-.28a47.8,47.8,0,0,1-1.64,7.47c-.69,1.73-1.18,2-1.26,2a.58.58,0,0,1-.14-.11l-.17-.17c-.94-.95-1.92-1.93-3-1.93a1.81,1.81,0,0,0-1.3.56,3.19,3.19,0,0,0-.6,2.4,4.38,4.38,0,0,1-.06,1,1,1,0,0,1-.25,0,4.58,4.58,0,0,1-2-1.23c-.81-.72-2-1.8-3.31-.53s-3,2.4-4.28,1.86a5.52,5.52,0,0,1-1.51-1.18c-.87-.85-2-1.91-3.54-1.31-1.1.41-1.63,1.61-2.1,2.67-.77,1.72-1,1.74-1.35,1.63-1.68-.51-1.84-.76-1.84-3.07a3,3,0,0,0-1.55-2.84,1.88,1.88,0,0,0-2.09.48,3.64,3.64,0,0,0-.61,2.67c-.27-.4-.54-.86-.79-1.28-.83-1.4-1.44-2.42-2.36-2.42h0a1.29,1.29,0,0,0-1.11.81c-.6,1.2,0,2.78.67,4.31l.08.19c-1.32-1.48-2.27-2.45-3.29-2.48a1.43,1.43,0,0,0-1.07.42c-1.17,1.17.08,2.88,1.18,4.39a15.21,15.21,0,0,1,1,1.52c-.23-.14-.5-.34-.68-.47-.67-.49-1.36-1-2.11-.8a1.37,1.37,0,0,0-.91.81,5.47,5.47,0,0,0,0,2.81,12.48,12.48,0,0,1,.15,1.43,5.29,5.29,0,0,1-.75-.47,7,7,0,0,1-2.73-4,3.61,3.61,0,0,0-1.87-2.6,4.62,4.62,0,0,0-3.33-.26l-1.17.21a29.29,29.29,0,0,0-3-7.32,30.54,30.54,0,0,0-1.94-3,19.67,19.67,0,0,1-2-3.18c-.67-1.5-.47-2.43-.11-4.13.05-.25.11-.51.16-.79a2.37,2.37,0,0,1,.89-1.33,2.16,2.16,0,0,0,.9-1.52,2.81,2.81,0,0,0-1-1.89,9.54,9.54,0,0,1-1.08-1.16,2.66,2.66,0,0,1,0-.38,11.77,11.77,0,0,0,.17-2.08,5.77,5.77,0,0,0-.72-3.35,6.73,6.73,0,0,1-.74-1.94c-.18-.76.24-1.14,1.51-1.84.73-.4,1.41-.78,1.52-1.53a1.43,1.43,0,0,0-.48-1.23c-1-1-1-2-.36-4l.08-.22c.65-1.82,1.26-3.54-.5-5.3-.25-.25-.25-.44.23-1.36.38-.73,1-1.94,0-3-1.23-1.23.21-3.78.88-4.82,1.82-2.79,1.82-4.91,1.82-8.76a17.82,17.82,0,0,0-3.28-10.21c-1.42-2.11-1.39-3.48,1.57-7.92s3.46-5.49,3.46-9.65c0-3.3-.37-11.46-3.78-15.79-2.15-2.73-.86-3.91.93-5.53.28-.25.56-.51.83-.78a14.51,14.51,0,0,1,1.42-1.19c1-.78,2-1.51,2-2.59a2.51,2.51,0,0,0-.89-1.94,2,2,0,0,1-.78-1.61,1.9,1.9,0,0,1,1-1.29,3.28,3.28,0,0,0,1.7-2.85,1.92,1.92,0,0,0-1.31-1.64,2,2,0,0,1-.91-.58,2.12,2.12,0,0,1,.91-.63,3.05,3.05,0,0,0,2.38,0c2.25-.7,3.33-2.67,4.2-4.25.64-1.16,1.2-2.17,2-2.38a4.2,4.2,0,0,1,2,.07,4.81,4.81,0,0,0,5.09-1.51,30.23,30.23,0,0,0,3.55-4.6,37.38,37.38,0,0,1,4.64-5.91,9.78,9.78,0,0,1,3.92-2.56,5.13,5.13,0,0,0,3.33-3A5.83,5.83,0,0,1,257,143.5a2.92,2.92,0,0,1,2.26.1c2.68,1.34,4.39.18,5.84-1.26,1.82-1.82,4-3.64,6.67-2.8v0c-.57,2.11-.79,3.42,1.47,5.67a5.3,5.3,0,0,1,1.71,2.9,2.9,2.9,0,0,1-1,2.47c-.92.92-2.12,2.34-2,4.12.1,1.41,1,2.74,2.79,4.05a16.79,16.79,0,0,0,3.69,2.11,4.07,4.07,0,0,1,2.41,2c.42.71.81,1.52,1.19,2.32,1.06,2.23,2.16,4.53,4.21,4.53a4.79,4.79,0,0,0,3.09-1.56,4.82,4.82,0,0,1,.88-.68h0a11.5,11.5,0,0,1,3.39,6.88c.46,3.82-.16,7.43-1.52,8.79a4.39,4.39,0,0,1-2,1.15,5.29,5.29,0,0,0-2.26,1.31,2.48,2.48,0,0,0-.71,2.92,8.58,8.58,0,0,1,.34,2.47c0,3.44.15,5.53,3.29,8.67,2.87,2.87,7.72,5.82,11.39,6.27a3.89,3.89,0,0,1-2.73,3c-1.12.37-2.3.9-2.56,2s.64,2.22,1.34,2.92a4.58,4.58,0,0,1,1.51,2.3c.05.37,0,1-1,1.95-2.06,2.06-2.25,3.5-.79,5.9l.07.14a6,6,0,0,1-.8.27c-.91.26-2.15.62-2.47,1.82s.51,2.21,1.35,3.08a7.32,7.32,0,0,1,1.88,2.73,7.4,7.4,0,0,1,.24,3c-.08,1.55-.18,3.32,1.5,5,2.36,2.36,2.55,2.87,1.63,4.54a7.06,7.06,0,0,0-.51,6.17,3.59,3.59,0,0,1,0,2.84c-.07.1-.3.4-1.05.4a15.72,15.72,0,0,0-2.76.34c-1.53.28-3,.55-3.62-.1-1.29-1.29-3.69-3.69-6.05-1.33a6,6,0,0,1-4.83,1.72c-1.78,0-2.15,1.55-2.43,2.67a4.42,4.42,0,0,1-.93,2.13,8,8,0,0,1-1.21.93c-1.35.91-3,2.05-2.45,5.55a20.47,20.47,0,0,1,.08,5.91c-.1,1.09-.2,2.21-.2,3.58,0,.76,0,1.4-.05,2-.09,2.15-.15,3.56,1.91,4.73a1.12,1.12,0,0,1,.29.21,4.65,4.65,0,0,1-.64,1,7.71,7.71,0,0,0-1.57,2.88l1.62.4a6.27,6.27,0,0,1,1.27-2.26c.58-.76,1.13-1.48,1-2.32a2,2,0,0,0-1.11-1.33c-1.14-.65-1.16-1-1.07-3.21,0-.59.05-1.25.05-2,0-1.29.1-2.38.2-3.43a22.13,22.13,0,0,0-.1-6.34c-.41-2.44.45-3,1.74-3.89a9.43,9.43,0,0,0,1.46-1.14,5.84,5.84,0,0,0,1.37-2.92c.31-1.26.44-1.4.81-1.4a7.69,7.69,0,0,0,6-2.21c.92-.92,1.74-.62,3.69,1.33,1.26,1.26,3.22.9,5.1.56a14.55,14.55,0,0,1,2.46-.31,2.81,2.81,0,0,0,2.39-1.07c1-1.3.6-3.26.29-4.32a5.43,5.43,0,0,1,.37-4.9c1.56-2.84.36-4.26-1.91-6.53-1.16-1.16-1.1-2.23-1-3.73a9,9,0,0,0-.33-3.59,8.82,8.82,0,0,0-2.26-3.34c-.74-.77-1-1.12-.94-1.48s.79-.49,1.31-.64c.77-.22,1.65-.48,2-1.26a1.8,1.8,0,0,0-.26-1.62c-1-1.63-1.08-2.23.54-3.84a4,4,0,0,0,1.43-3.35,5.93,5.93,0,0,0-2-3.25c-1-1-.9-1.34-.9-1.36s.15-.36,1.46-.8A5.55,5.55,0,0,0,303.9,206c.91,0,2,.09,3.05.15,3.29.19,7,.41,9.48-.18l.9-.22c3-.76,5.66-1.41,8.57.15,2.56,1.36,4,.09,5-.85a3.25,3.25,0,0,1,2.19-1.16c1.41,0,2.73.11,4.12.23s2.86.24,4.43.24c3.45,0,6.33-.25,9.49-3.41,2.13-2.13,4.25-3.11,5-2.81.3.13.37.64.37,1a19.94,19.94,0,0,0,1.17,5.29c.8,2.59,1.71,5.53,1.09,7.45a9.6,9.6,0,0,0,2.08,9.28c2.21,2.21,10.24.95,10.32.94a27.34,27.34,0,0,0,6.48-2.09c.73-.3,1.56-.64,2.47-1,3.41-1.34,5.4-1.32,5.9-1a.19.19,0,0,1,.09.19,3.87,3.87,0,0,1-.38,1.37c-.44,1.09-1,2.59.62,4.26a12.18,12.18,0,0,1,2.06,2.41c.31.6.2.89-.13,1.21-1.5,1.5-1.3,3.42.56,5.28a1.51,1.51,0,0,1,.25,1.62,1,1,0,0,1-1,.7,2.77,2.77,0,0,0-2.54,1.82,4.3,4.3,0,0,0,1.13,4.64l7,7c2.59,2.59,4.3,4.61,2.76,7a26.83,26.83,0,0,1-3.36,4,21.68,21.68,0,0,0-2.48,2.89,3.9,3.9,0,0,0-.46,3.5,5,5,0,0,0,3.12,3l.23.09a5.93,5.93,0,0,1-.35.68,5.58,5.58,0,0,0-.92,2.77c0,2,1.84,2.14,2.94,2.25.47,0,1.25.12,1.31.32a2.42,2.42,0,0,1-.34,1.36c-.47,1.1-1.19,2.76.56,4.5a5,5,0,0,1,1,3.06c.17,1.53.41,3.62,2.85,3.62a4.08,4.08,0,0,1,3.1,1,2.22,2.22,0,0,1,.4,1.84c-.32,2.27,1.3,3.57,2.74,4.71a17.35,17.35,0,0,1,1.48,1.27,2.64,2.64,0,0,1,.79,2.06,7.55,7.55,0,0,0,1.2,3.87c1.57,2.55,1.12,3,.12,4a10.78,10.78,0,0,1-1.11.86c-1.27.92-2.59,1.87-2.35,3s1.55,1.38,2,1.48a14.25,14.25,0,0,0,3.29.39,17.7,17.7,0,0,0,1.78-.1c-.81,1-1.66,2-2.45,2.86-1.87,2-2.47,2.13-2.52,2.14-1,0-1-2.17-1-2.61a2.24,2.24,0,0,0-1.6-2.21c-1.22-.38-3.25,0-5,2.49-2.19,3.14-4.68,6.69-4.68,9.44a16.05,16.05,0,0,0,1.34,5.66,4.34,4.34,0,0,0-3.49,1.41c-1.1,1.39-.79,3.44-.4,5.08a1.27,1.27,0,0,1-.21,1.16c-.69.87-2.66,1.41-5.15,1.41-3.26,0-3.58-.32-5.38-2.12s-3.91-.28-5.73,1.1a16.88,16.88,0,0,1-2.45,1.66c-2.27,1.16-4.83-.66-7.31-2.41l-.48-.34a23.13,23.13,0,0,1-1.85-1.5c-1.68-1.46-3.58-3.11-5.71-1-1.28,1.28-1.62,3.21-2,5.08-.27,1.52-.53,3-1.24,3.67-1,1-3.73,1.76-6.46,2.18a5.14,5.14,0,0,0,.79,1.56c2.7-.45,5.54-1.25,6.85-2.56,1.08-1.08,1.4-2.85,1.7-4.56s.59-3.29,1.49-4.19,1.48-.63,3.43,1.07a24.79,24.79,0,0,0,2,1.6l.47.33c2.75,1.95,5.87,4.16,9,2.54a18.1,18.1,0,0,0,2.7-1.82c2.07-1.58,2.82-2,3.53-1.25,2.07,2.07,2.77,2.61,6.56,2.61,1.81,0,5.06-.27,6.47-2a2.93,2.93,0,0,0,.52-2.59c-.28-1.17-.58-2.81.09-3.65a3,3,0,0,1,2.4-.78,4.86,4.86,0,0,1,3.79,1.92c.78.81,1.66,1.73,3,1.21s1.54-1.74,1.79-2.75c.37-1.47.53-1.51,1.07-1.43a5.57,5.57,0,0,1,4.3,3.41c.93,2.26,7.72,4.26,14.84,4.45-.26,1-.5,1.56-1,1.76-2.39,1-3.68,2.09-4.11,5.43-.36,2.77.43,3.56,2.1,5,.35.29.74.62,1.18,1,1.31,1.2,1.19,2.08.94,3.82a18.76,18.76,0,0,0-.24,2.77c0,3.83,1.45,4.42,4.34,5.59l.36.15c1.51.62,1.42,1.82.84,4.41a16.24,16.24,0,0,0-.39,2.24c-.21,2.79,1.35,6.48,4.24,7.56,1.63.61,3.45.13,5.22-.33a13.61,13.61,0,0,1,3.25-.59c1.22,0,1.41.39,1.82,1.24a5.08,5.08,0,0,0,1.23,1.77c1.47,1.27,2.78-.2,3.65-1.17a5.76,5.76,0,0,1,1.87-1.6c.17-.06.33-.13.66.29a10.42,10.42,0,0,1,1.05,2.09,15.2,15.2,0,0,0,1.39,2.76c1.26,1.81,1.65,3.5-.06,6.83-1.61,3.13-1.1,5.09-.4,7.81.14.54.28,1.09.42,1.71.91,3.94,2.41,6.28,7.75,7.35a12,12,0,0,0,5.79-.14,4.64,4.64,0,0,1,2.78-.08c.22.07.26.16.28.19.26.6-.58,2.31-1.13,3.44-.69,1.41-1.23,2.52-1.08,3.4.27,1.5,1.94,1.77,3.57,2a8.1,8.1,0,0,1,3,.86,7.58,7.58,0,0,1,3.13,6.45c-.18,2.72-2.16,4.53-5.87,5.37-4.21,1-7,1.59-8.67,3.93-1.47,2.05,1.91,5,5.18,7.87a27,27,0,0,1,2.54,2.38c.77.95.64,2.68.49,4.69a21.43,21.43,0,0,0,0,4.84,40.61,40.61,0,0,1,.41,6.59l1.67.11a42.38,42.38,0,0,0-.43-7,19.86,19.86,0,0,1,0-4.46c.17-2.26.33-4.4-.86-5.87a26.77,26.77,0,0,0-2.73-2.59,42.35,42.35,0,0,1-3.84-3.64c-1.09-1.26-1.19-1.86-1.09-2,1.25-1.74,3.37-2.29,7.68-3.27,5.63-1.28,7-4.45,7.17-6.89a8.06,8.06,0,0,0-7.56-9.07c-.79-.12-2.12-.33-2.18-.66a8.34,8.34,0,0,1,.93-2.38c.85-1.73,1.72-3.52,1.16-4.83a2,2,0,0,0-1.3-1.13,6.17,6.17,0,0,0-3.68,0,10.43,10.43,0,0,1-5.08.12c-4.53-.91-5.65-2.61-6.45-6.08-.15-.64-.29-1.2-.43-1.75-.68-2.62-1-4.07.27-6.63,1.8-3.5,1.78-5.9-.06-8.55a14,14,0,0,1-1.22-2.45c-.77-1.83-1.74-4.1-3.85-3.3a6.92,6.92,0,0,0-2.52,2.05c-.36.41-1,1.08-1.19,1.09a.34.34,0,0,1-.11-.07,3.55,3.55,0,0,1-.82-1.23,3.18,3.18,0,0,0-3.32-2.18,14.8,14.8,0,0,0-3.67.64c-1.58.41-3.08.81-4.21.38-1.86-.7-3.34-3.44-3.16-5.87a14.87,14.87,0,0,1,.36-2c.48-2.16,1.13-5.11-1.85-6.32l-.36-.15c-2.8-1.13-3.3-1.33-3.3-4a17.36,17.36,0,0,1,.22-2.53c.26-1.87.49-3.49-1.47-5.29-.46-.43-.87-.77-1.24-1.07-1.43-1.2-1.77-1.48-1.52-3.46.35-2.71,1.21-3.33,3.09-4.1,1.36-.56,1.74-2,2.07-3.23.41-1.56.75-2.55,1.91-3,2.73-1.06,4.6-.76,7.3.2l.52.19c2.46.89,3.95,1.42,6.18.25a5.27,5.27,0,0,0,1.69-1.48c.64-.78,1-1.21,3.07-.69,1.18.3,2.21.65,3.21,1,2.22.77,4.14,1.43,6.21.74a9.38,9.38,0,0,0,3.16-2.07,6.69,6.69,0,0,1,3.85-2.08c2.8-.25,6.28-.55,7.19,1,.25.41.48.89.73,1.4.87,1.8,2,4.05,4.68,5a10.87,10.87,0,0,0,6,0,14,14,0,0,1,2.67-.36c1,0,2.35.32,2.67,3.06a1.44,1.44,0,0,0,.91,1.27c.41.16,1.49.57,5.05-2.59,1.56-1.39,3.11-2,5.63-.49,1.93,1.16,1.56,2.12,1,3.45-.08.21-.16.42-.23.63a5.4,5.4,0,0,0,1.59,6.52c.53.49,1.07.95,1.59,1.39,1.7,1.45,3.3,2.82,3.3,4.12a4.17,4.17,0,0,1-1,1.88c-.74,1-1.5,2-1.26,3.09a2.77,2.77,0,0,0,1.57,1.8,8.4,8.4,0,0,0,6,.6,8.09,8.09,0,0,1,2.34-.21c2.15.27,4.15,1.87,5.45,3.17,2.25,2.25,5.86-.64,7-1.59l.79-.66c1.84-1.57,3.93-3.35,6.59-2.06.56.27,1.06.53,1.53.78,2.5,1.31,4.15,2.17,8.39,1a21.82,21.82,0,0,1,3.47-.6c2.2-.24,4.1-.46,3.86-4,0-.66-.12-1.26-.18-1.78-.22-1.88-.21-2.36.4-2.66,1.49-.74,1-2.22.67-3.2a4.26,4.26,0,0,1-.33-2.39,2.34,2.34,0,0,1,1.35-1.61,2.7,2.7,0,0,1,2.39.19c1.84,1,3.08,1.14,5.53-1a10.34,10.34,0,0,0,1.85-2.31c1-1.61,1.57-2.31,3.13-1.89a18.71,18.71,0,0,1,2.26.78,13.48,13.48,0,0,0,1.37.49c-.11.38-.24.76-.36,1.13-.79,2.44-1.6,5,0,6.61,1,1,1,1.57.9,3,0,.46-.06,1-.06,1.58,0,.38,0,.8,0,1.25,0,2.76-.1,6.2,1.19,7.94v0a8.71,8.71,0,0,1-1.83.68,7.13,7.13,0,0,0-2.92,1.32,4,4,0,0,0-.65,3.19c.29,2.52,1.65,5.72,3.68,7a16.33,16.33,0,0,0,3.17,1.57,15.58,15.58,0,0,0,1,4.26,23.1,23.1,0,0,1,.87,3.1,13.43,13.43,0,0,1,.41,3.67l-.13-.06c-1.31-.67-3.24-1.2-4.38-.51a1.64,1.64,0,0,0-.79,1.45c0,1.09,1.1,1.71,2.17,2.32.78.44,1.85,1.05,1.85,1.58,0,1.86,0,6.8,1.4,9.44.73,1.37,1,2.24.94,2.58s-.51.45-.93.65a12.1,12.1,0,0,1-2.29.63c-1.79.39-3.83.83-5,2a13.88,13.88,0,0,1-1.58,1.24c-1.5,1.07-3.2,2.29-3.33,3.86a2.64,2.64,0,0,0,.89,2.11,18.29,18.29,0,0,0,4,2.64c2,1.11,4.36,2.38,4.36,3.66a.66.66,0,0,1-.13.49c-.33.3-1.49.17-2.25.08-1.18-.13-2.29-.25-3,.42a1.43,1.43,0,0,0-.43,1.12c.06,1.07,1.22,2.08,2.73,3.29.34.27.66.53.84.7-.1.32-1.19,1.31-3.89,1.31-.25,0-.89-.08-1.56-.17-3.65-.47-5.42-.57-6,.5-.18.37-.24,1,.53,1.75a16.82,16.82,0,0,0,3.71,2.47,13.9,13.9,0,0,1,2.17,1.35c-1.19.94-5,1.64-9,1.64-1.31,0-2.41-1-3.47-2s-2.11-1.91-3.41-1.91a7.74,7.74,0,0,0-3.69,1.46,7.59,7.59,0,0,1-3.48,1.41,7.17,7.17,0,0,1-2.81-1c-1.13-.56-2.11-1-2.92-.54a1.76,1.76,0,0,0-.71,1.62,2.82,2.82,0,0,1-2.46,2.9,4.45,4.45,0,0,1-1-.33c-1.15-.45-3.28-1.3-4.33.79a13.73,13.73,0,0,0-.68,1.72c-.57,1.68-.94,2.55-2.31,2.55H515.67l.09.18a13,13,0,0,1,.67,1.49h10.45c2.63,0,3.33-2,3.89-3.68a12.5,12.5,0,0,1,.59-1.51c.27-.55.61-.61,2.22,0a4.74,4.74,0,0,0,1.63.44,4.48,4.48,0,0,0,4.14-4.57s0-.08,0-.11a10.45,10.45,0,0,1,1.21.54,8.46,8.46,0,0,0,3.55,1.13,8.87,8.87,0,0,0,4.34-1.65,6.66,6.66,0,0,1,2.83-1.22c.66,0,1.45.72,2.29,1.48,1.24,1.12,2.64,2.4,4.6,2.4,4,0,8.79-.7,10.35-2.25a1.41,1.41,0,0,0,.44-1.21c-.15-1-1.4-1.72-3.13-2.67a18.64,18.64,0,0,1-3.05-1.93,31.35,31.35,0,0,1,3.75.33c.79.1,1.42.18,1.78.18,3.3,0,5-1.26,5.43-2.33a1.61,1.61,0,0,0-.33-1.81c-.24-.24-.59-.52-1-.84a10.87,10.87,0,0,1-2-1.93,8,8,0,0,1,1.49.08c1.25.14,2.67.29,3.55-.5a2.22,2.22,0,0,0,.69-1.73c0-2.28-2.66-3.73-5.23-5.13a17.32,17.32,0,0,1-3.63-2.35c-.43-.43-.41-.71-.4-.8.07-.8,1.55-1.86,2.63-2.64a14.83,14.83,0,0,0,1.79-1.41c.87-.87,2.65-1.26,4.22-1.59a12.93,12.93,0,0,0,2.65-.75,3,3,0,0,0,1.8-1.64c.33-1-.14-2.18-1-3.89-1.21-2.26-1.21-7.07-1.21-8.65s-1.49-2.35-2.69-3a5.61,5.61,0,0,1-1.32-.9,3.93,3.93,0,0,1,2.73.58,1.68,1.68,0,0,0,1.89,0c.94-.71.83-2.31.24-5.43a24.5,24.5,0,0,0-.93-3.31,16.36,16.36,0,0,1-.84-3.19l1.13.31,1.72.47a15.24,15.24,0,0,0,3.48.56,2.77,2.77,0,0,1,2.29.85,5.51,5.51,0,0,1,1.07,1.85,3.21,3.21,0,0,0,1.54,2,1.82,1.82,0,0,0,.67.13,2.9,2.9,0,0,0,1.2-.3,10.36,10.36,0,0,0,2.23-1.43,3.31,3.31,0,0,1,2.35-1c1.76,0,2.46-1.52,3-2.74.36-.8.71-1.56,1.21-1.73s.72.07,1.57,1.45a12.48,12.48,0,0,0,1.77,2.39,9.36,9.36,0,0,0,10.64,1.88,17.52,17.52,0,0,1,8-1.06,2.93,2.93,0,0,1,.65-1.24l.29-.35a19.65,19.65,0,0,0-9.62,1.12,7.66,7.66,0,0,1-8.77-1.54,11.15,11.15,0,0,1-1.53-2.08c-.8-1.29-1.71-2.76-3.52-2.16-1.2.4-1.73,1.58-2.21,2.62-.55,1.2-.87,1.76-1.49,1.76a4.94,4.94,0,0,0-3.39,1.38,8.7,8.7,0,0,1-1.89,1.22,1,1,0,0,1-.56.14c-.18-.07-.42-.67-.61-1.1a7,7,0,0,0-1.43-2.4,4.35,4.35,0,0,0-3.37-1.34,13.58,13.58,0,0,1-3.13-.5l-1.74-.48a17.34,17.34,0,0,1-5.58-2.22c-1.48-.91-2.65-3.69-2.89-5.74-.14-1.2.08-1.71.17-1.81a6.77,6.77,0,0,1,2.21-.9c1.43-.43,2.67-.79,3-1.78a1.6,1.6,0,0,0-.32-1.51c-1-1.29-.9-4.68-.86-6.92,0-.46,0-.89,0-1.28,0-.56,0-1.05.06-1.48.09-1.54.17-2.76-1.39-4.31-.93-.93-.3-2.86.36-4.91.16-.5.33-1,.48-1.53a4.32,4.32,0,0,0,2-1.08,60.15,60.15,0,0,0,6.13-6.42,18.35,18.35,0,0,1,5-4.48,16.06,16.06,0,0,1,2.18-1c2.09-.81,4.69-1.83,5.94-4.56,1.65-3.61,1.17-6.18.25-10.08-.28-1.18-.75-2.6-1.24-4.11-.92-2.77-2.17-6.57-1.62-7.82.65-1.5,2.19-2.21,4.32-3.2.58-.27,1.17-.54,1.81-.86a56.84,56.84,0,0,0,10.55-7.47,2.71,2.71,0,0,0,.88-2.72,2.91,2.91,0,0,0-2.39-1.78c-.5-.1-1.27-.2-2.16-.31-2.17-.27-6.21-.76-7.25-1.8a3.11,3.11,0,0,1-1.21-2.29c.07-.33.38-.6.92-.81a15,15,0,0,1,7-.53c2.23.24,6.24.32,8-1.86a6.29,6.29,0,0,0,1-3c0-.16.06-.36.1-.56a2.84,2.84,0,0,0-1.62-.42c0,.23-.09.47-.13.71a5.21,5.21,0,0,1-.69,2.21c-.93,1.13-3.38,1.6-6.56,1.26a16.47,16.47,0,0,0-7.79.64,2.82,2.82,0,0,0-1.95,2c-.24,1.15.35,2.51,1.66,3.82s4.65,1.84,8.23,2.28c.85.1,1.59.2,2,.29.73.15,1.07.44,1.14.65s-.11.65-.5,1.07a56.83,56.83,0,0,1-10.08,7.12c-.61.31-1.2.58-1.76.84-2.37,1.1-4.25,2-5.15,4.05-.8,1.84.35,5.32,1.57,9,.48,1.47.94,2.86,1.21,4,.87,3.65,1.29,5.87-.14,9-1,2.12-3,2.92-5,3.7a17.2,17.2,0,0,0-2.42,1.08,19.83,19.83,0,0,0-5.47,4.86,59.75,59.75,0,0,1-5.94,6.23c-1.22,1.06-1.81.82-3.4.18a20.4,20.4,0,0,0-2.45-.85c-2.8-.74-4,1.11-5,2.6a8.92,8.92,0,0,1-1.54,2c-2,1.7-2.49,1.41-3.62.78a4.36,4.36,0,0,0-3.87-.27,4,4,0,0,0-2.32,2.73,5.7,5.7,0,0,0,.36,3.34A3.56,3.56,0,0,1,553,353l-.1.06c-1.73.86-1.54,2.48-1.31,4.36.06.51.13,1.08.17,1.7.1,1.41-.21,1.65-.32,1.73a5.08,5.08,0,0,1-2.05.45,23.26,23.26,0,0,0-3.72.65c-3.61,1-4.73.39-7.18-.89-.46-.24-1-.52-1.58-.8-3.64-1.77-6.5.67-8.4,2.29l-.75.63c-1.66,1.33-3.84,2.7-4.82,1.72-1.48-1.48-3.8-3.32-6.42-3.64a9.42,9.42,0,0,0-2.85.22,6.73,6.73,0,0,1-4.93-.42c-.43-.23-.69-.47-.73-.67-.08-.39.49-1.13.95-1.73a5.12,5.12,0,0,0,1.39-2.9c0-2.07-1.89-3.68-3.88-5.39-.51-.44-1-.89-1.54-1.35a3.79,3.79,0,0,1-1.14-4.76c.06-.17.13-.36.21-.55.52-1.35,1.4-3.6-1.74-5.49-3.62-2.17-6-.78-7.6.68a10.72,10.72,0,0,1-3.2,2.23c-.51-3.82-2.91-4.39-4.32-4.39a15.47,15.47,0,0,0-3,.39,9.26,9.26,0,0,1-5.1,0c-2.07-.71-2.91-2.45-3.72-4.13-.26-.54-.51-1.06-.8-1.54-1.45-2.41-5.34-2.07-8.77-1.76a8.22,8.22,0,0,0-4.8,2.48,8,8,0,0,1-2.59,1.74c-1.53.51-3,0-5.13-.73-1-.34-2.09-.72-3.35-1-2.88-.72-3.83.1-4.77,1.25a3.7,3.7,0,0,1-1.17,1.06c-1.58.83-2.54.49-4.84-.35l-.52-.19c-2.95-1.05-5.28-1.42-8.46-.19a4.3,4.3,0,0,0-2.53,2.81c-7.76-.12-13.36-2.4-13.78-3.43a7.23,7.23,0,0,0-5.58-4.42c-2.2-.35-2.67,1.54-3,2.67-.22.87-.39,1.45-.78,1.6s-.44,0-1.18-.81a7.13,7.13,0,0,0-3.34-2.22l-.17-.43a15.48,15.48,0,0,1-1.37-5.43c0-2.22,2.43-5.69,4.38-8.48,1.12-1.59,2.39-2.08,3.1-1.86a.57.57,0,0,1,.43.61c0,3.86,1.88,4.28,2.69,4.28,1.33,0,3.26-1.82,7.31-6.91l.62,0A3.56,3.56,0,0,0,419.7,310c.71-.88,1-1.15,1.73-.9,3,1,4.79-.36,7.32-2.23a6.73,6.73,0,0,0,2.25-2.92c.41-.89.52-1.13,1.47-1.13.76,0,1.19.39,1.85,1a3.68,3.68,0,0,0,4.69,1c2.59-1.12,2.53-3.42,2.48-5.26a5.58,5.58,0,0,1,.47-3.13c.21-.33.44-.71.68-1.12,1.64-2.76,4.11-6.92,8.45-6.92,1.53,0,2.92-.09,4.27-.17,3.33-.21,6-.37,8,1.07,2.58,1.82,4.61,1.1,6.57.4a15.35,15.35,0,0,1,2.49-.73,7.43,7.43,0,0,1,3.74.74c1.91.71,4.08,1.52,6.53.37a21.85,21.85,0,0,0,6.77-5.26l.72-.75c1.07-1.07,1.19-2.92,1.3-4.7a16.06,16.06,0,0,1,.32-2.71c.21-.83.28-.83,1.54-.82a12.59,12.59,0,0,0,3.23-.32,7.24,7.24,0,0,0,3.39-2.1c1-1,1.21-1.16,2.14-.23a13.56,13.56,0,0,1,2.06,3.15,12.34,12.34,0,0,0,2,3.06,3.12,3.12,0,0,0,3.54.7,4.4,4.4,0,0,0,2.84-3.23c.27-.89.34-1.1,1.24-1.1a12.43,12.43,0,0,1,3.16.6c2,.56,4.27,1.19,5.41-.79a7.21,7.21,0,0,0,.66-3.84c0-1.33,0-2.48.73-3.25.38-.38.76-.81,1.16-1.25,1.53-1.71,3.26-3.65,5.62-3.65h1.14c2.63,0,4.08-.05,6,1.87.94.94,1.2,2.72,1.44,4.29s.47,3.1,1.43,3.8a2.06,2.06,0,0,0,1.61.34,3.85,3.85,0,0,0,2.77-2.15,2.49,2.49,0,0,1,.45-.62s.21,0,.81.37c2,1.35,3.18-.18,3.85-1.09s1.15-1.49,2.18-1.2c2.13.61,3.73.59,4.9-.07a3.74,3.74,0,0,0,1.75-2.38c.36-1.31-.24-3.7-1.2-7.2l-.05-.19c-.46-.26-1.2-.69-2.06-1.22.16.6.33,1.22.5,1.85C556.71,262.34,557.52,265.31,557.25,266.27ZM222.18,173.52c.23.09.24.17.24.22a1.77,1.77,0,0,1-.9,1.27,3.51,3.51,0,0,0-1.77,2.52,3.58,3.58,0,0,0,1.25,3,1.14,1.14,0,0,1,.41.65c0,.33-.77.91-1.38,1.38a16,16,0,0,0-1.58,1.33c-.24.24-.49.47-.77.72-1.69,1.53-4.23,3.85-1.12,7.8S220,204.73,220,207.17c0,3.73-.36,4.49-3.18,8.72s-3.71,6.6-1.57,9.79a16.2,16.2,0,0,1,3,9.27c0,3.76,0,5.48-1.55,7.85-2.6,4-1.53,6-.67,6.91.11.11.09.27-.3,1s-1.11,2.13.07,3.31c1,1,.75,1.74.1,3.55l-.08.23c-.62,1.77-1,3.8.59,5.57l-.5.28c-1,.55-2.84,1.56-2.33,3.7a8.36,8.36,0,0,0,.9,2.35,4.2,4.2,0,0,1,.52,2.55,10.12,10.12,0,0,1-.15,1.81c-.21,1.28.05,1.54,1.5,3a2.39,2.39,0,0,1,.52.65,3.54,3.54,0,0,1-.34.34,4,4,0,0,0-1.4,2.23c-.05.27-.11.53-.16.77a7.33,7.33,0,0,0,.22,5.16,20.8,20.8,0,0,0,2.16,3.47,29.28,29.28,0,0,1,1.84,2.8,28.68,28.68,0,0,1,2.76,6.74c-3.76.41-6.91-.05-8.86-1.32-.93-.6-1.14-1.59-1.38-2.74a5.83,5.83,0,0,0-1.37-3.13c-1.11-1.11-2.94-2.05-4.33-1.48a2.24,2.24,0,0,0-1.31,2.29c0,.53-.23.66-.32.72-.66.38-2.44.16-4.3-.89l-.79-.44c-2.11-1.17-3.93-2.19-4.61-3.8-.87-2.07-2.48-1.66-3.65-1.36a7,7,0,0,1-1.77.29c-1.62,0-3.37-.81-3.37-2.6,0-2.69-.26-7.47-2-9.23a14.14,14.14,0,0,0-3.48-2.2,14.31,14.31,0,0,1-3.38-2.12c-2.06-2.06-5.27-3.22-7.16-1.33a15,15,0,0,0-1.78,2.59,16.56,16.56,0,0,1-1.79,2.61,3.18,3.18,0,0,1,.33-2.49c.49-1.19,1.15-2.82-.51-4.48a9.13,9.13,0,0,0-3.51-2c-1.32-.49-2-.77-2.19-1.68a9.76,9.76,0,0,1-.24-1.67c-.14-1.66-.29-3.54-3.61-4.25-5-1.06-6-2.22-6-3a5.38,5.38,0,0,1,2.82-4.14,1.2,1.2,0,0,0,.93-1.09c0-1.05-1.32-1.69-4.13-2.93l-1.16-.52a2.3,2.3,0,0,1-1.37-1.43,3.54,3.54,0,0,1,.62-2.78l.4-.6c1.05-1.55,2.14-3.15.12-5.88-1.36-1.84-1.33-2.73-1.26-4.68,0-.46,0-1,0-1.57a11.2,11.2,0,0,0-1.55-5.49c-.33-.66-.67-1.34-1-2.13a13.18,13.18,0,0,1-1.06-7.29c.3-1.65,1.43-2.19,4.18-3.35l1.09-.46c3.35-1.45,6.81-4.51,9.11-6.82a2.23,2.23,0,0,1,1.72-.77c1.12-.08,2.05-.31,3-2.47A5.4,5.4,0,0,0,163,197c-.44-1.38-.62-2,1.32-2.88a19.4,19.4,0,0,1,5.28-1.72,17.49,17.49,0,0,0,3.65-1c.55-.23,1.14-.44,1.77-.66,2.9-1,6.51-2.29,6.93-6.45a28.51,28.51,0,0,0,0-5c-.15-2.12-.26-3.8.5-5.39a14.82,14.82,0,0,0,.94-3c.32-1.33.63-2.58,1.31-3a2.15,2.15,0,0,1,1.64,0l.44.12c3.78,1,4.56,1.24,7.89.2A8.06,8.06,0,0,1,198,168a6.94,6.94,0,0,0,4.8-.87,13.12,13.12,0,0,0,2.66-2.3c1.23-1.29,2.12-2.22,4.14-2.22,1.36,0,2.67-.09,3.83-.17a15.19,15.19,0,0,1,5,.13,7.18,7.18,0,0,0,2.1.27,2.63,2.63,0,0,1,1.06.13c.06,0,.24.24.24,1.12,0,.59-.05,1.24-.1,1.87a10.11,10.11,0,0,0,.08,3.43,2.46,2.46,0,0,0-1.55,2C220.19,172.26,220.92,173,222.18,173.52ZM438.14,95c.18-1.37.35-3.44.45-5.33a8.74,8.74,0,0,0,1.54.44h.11c-.08,1.46-.2,3-.35,4.32C439.31,94.6,438.71,94.8,438.14,95Zm172,387.88a7,7,0,0,1,3.37,1.51A4.57,4.57,0,0,0,613,486a7.17,7.17,0,0,0-2.81-1.49.57.57,0,0,0-.46.35,2.65,2.65,0,0,0,.41,2.57c1,1.57.63,3.83,0,5.67a3.48,3.48,0,0,0-1.21-1.95,3.85,3.85,0,0,0-.21-2.79,4.2,4.2,0,0,1-.49-4.29A2.2,2.2,0,0,1,610.15,482.84Zm80-9c-.4.37-.82.8-1.26,1.25a5.44,5.44,0,0,1-3.28-6.57c.23-2,.46-4-1.56-6-1.82-1.82-2.92-1.59-4.21-1.33a4.12,4.12,0,0,1-3.53-.46,11.16,11.16,0,0,1-2.48-2.5c-.9-1.15-1.42-1.74-2.39-1.74-1.91,0-2.95-.26-3.56-.89a3.46,3.46,0,0,1-.63-2.72c0-.25,0-.52,0-.8,0-2.46-.32-3.09-1.89-3.73l-.15-.06c-2.16-.88-4.4-1.79-4.82-4.18-.37-2.11,2-3.39,3.95-4.42.53-.29,1-.56,1.43-.81.57-.37.64-.82.74-1.79a5.89,5.89,0,0,1,1.15-3.3c.65-.83.93-1.46.83-1.87s-.73-.93-1.83-1.44a7.18,7.18,0,0,1-2.88-2.48,6.49,6.49,0,0,0-2.78-2.33c-3.45-1.52-6.34-4.75-6.85-7.69a34.44,34.44,0,0,0-2.59-7.74c-.79-1.9-.64-4.14-.5-6.3a12.33,12.33,0,0,0-.28-5,1.83,1.83,0,0,0-1-1.19c-1.06-.35-2.83.77-3.89,1.43a5,5,0,0,1-3.77,1,4.2,4.2,0,0,1-2.58-2.09,28.25,28.25,0,0,1-2.07-5.32c-.32-1-.65-2-1-3,.59,0,1.17-.07,1.72-.14.31.87.59,1.76.87,2.6a28.35,28.35,0,0,0,1.9,5,2.66,2.66,0,0,0,1.54,1.35,3.51,3.51,0,0,0,2.51-.76c1.76-1.11,3.63-2.15,5.29-1.61a3.42,3.42,0,0,1,2.06,2.16c.67,1.69.53,3.77.4,5.78s-.27,4,.37,5.55a35.67,35.67,0,0,1,2.69,8.1c.42,2.39,2.95,5.16,5.88,6.45a8.08,8.08,0,0,1,3.42,2.84,5.64,5.64,0,0,0,2.25,2c1.66.76,2.51,1.55,2.76,2.56a4,4,0,0,1-1.13,3.29,4.3,4.3,0,0,0-.81,2.45,3.55,3.55,0,0,1-1.49,3c-.45.3-1,.58-1.55.88-1.37.73-3.25,1.74-3.09,2.66.26,1.48,1.9,2.15,3.81,2.92l.15.06c2.72,1.11,2.93,2.89,2.93,5.28,0,.3,0,.59,0,.84,0,.7,0,1.31.15,1.5s.72.39,2.36.39c1.83,0,2.78,1.21,3.7,2.38a9.66,9.66,0,0,0,2.11,2.16,2.52,2.52,0,0,0,2.25.2c1.46-.29,3.27-.66,5.72,1.79s2.29,5.27,2,7.41a4,4,0,0,0,2.88,5.13Z"/>

        <g id="cities">
            <circle class="cls-4" cx="438.54" cy="153.38" r="7.52"/>
            <circle class="cls-4" cx="344.91" cy="167.43" r="4.18"/>
            <circle class="cls-4" cx="225.23" cy="133.76" r="4.18"/>
            <circle class="cls-4" cx="180.76" cy="120.05" r="4.18"/>
            <circle class="cls-4" cx="185.44" cy="215.36" r="4.18"/>
            <circle class="cls-4" cx="135.95" cy="261.84" r="4.18"/>
            <circle class="cls-4" cx="257.67" cy="230.74" r="4.18"/>
            <circle class="cls-4" cx="107.53" cy="186.26" r="4.18"/>
            <circle class="cls-4" cx="10.55" cy="274.55" r="4.18"/>
            <circle class="cls-4" cx="197.81" cy="315.01" r="4.18"/>
            <circle class="cls-4" cx="333.91" cy="248.8" r="4.18"/>
            <circle class="cls-4" cx="518.15" cy="233.08" r="4.18"/>
            <circle class="cls-4" cx="476.69" cy="70.56" r="4.18"/>
            <circle class="cls-4" cx="650.57" cy="111.02" r="4.18"/>
            <circle class="cls-4" cx="644.22" cy="216.03" r="4.18"/>
            <circle class="cls-4" cx="728.48" cy="177.57" r="4.18"/>
            <circle class="cls-4" cx="897.68" cy="274.21" r="4.18"/>
            <circle class="cls-4" cx="822.78" cy="327.72" r="4.18"/>
            <circle class="cls-4" cx="671.97" cy="303.64" r="4.18"/>
            <circle class="cls-4" cx="686.69" cy="352.8" r="4.18"/>
            <circle class="cls-4" cx="550.92" cy="450.44" r="4.18"/>
            <circle class="cls-4" cx="450.61" cy="469.17" r="4.18"/>
            <circle class="cls-4" cx="519.49" cy="427.7" r="4.18"/>
            <circle class="cls-4" cx="531.2" cy="306.31" r="4.18"/>
            <circle class="cls-4" cx="639.54" cy="583.2" r="4.18"/>
        </g>
    </g>
</svg>